G04*
G04 #@! TF.GenerationSoftware,Altium Limited,Altium Designer,19.0.4 (130)*
G04*
G04 Layer_Color=2752767*
%FSLAX25Y25*%
%MOIN*%
G70*
G01*
G75*
%ADD10C,0.01000*%
%ADD11C,0.00200*%
%ADD12C,0.00267*%
%ADD13C,0.00133*%
D10*
X387780Y385827D02*
G03*
X379921Y393686I-7859J0D01*
G01*
X7874D02*
G03*
X15Y385827I0J-7859D01*
G01*
X0Y7874D02*
G03*
X7874Y0I7874J0D01*
G01*
X379921D02*
G03*
X387795Y7874I0J7874D01*
G01*
X7844Y393686D02*
X379921D01*
X-15Y7874D02*
Y385827D01*
X7874Y-15D02*
X379906D01*
X387795Y7874D02*
Y385827D01*
X387795D02*
X387795D01*
D11*
X85800Y334500D02*
Y336100D01*
X87400D01*
Y334500D01*
X85800D01*
Y324500D02*
Y326100D01*
X87400D01*
Y324500D01*
X85800D01*
X251100Y81100D02*
Y82700D01*
X252700D01*
Y81100D01*
X251100D01*
X241100D02*
Y82700D01*
X242700D01*
Y81100D01*
X241100D01*
X181100D02*
Y82700D01*
X182700D01*
Y81100D01*
X181100D01*
X191100D02*
Y82700D01*
X192700D01*
Y81100D01*
X191100D01*
X201100D02*
Y82700D01*
X202700D01*
Y81100D01*
X201100D01*
X211100D02*
Y82700D01*
X212700D01*
Y81100D01*
X211100D01*
X221100D02*
Y82700D01*
X222700D01*
Y81100D01*
X221100D01*
X231100D02*
Y82700D01*
X232700D01*
Y81100D01*
X231100D01*
X270746Y74858D02*
X269947Y76458D01*
X271547D01*
X270746Y74858D01*
Y57142D02*
X269947Y58742D01*
X271547D01*
X270746Y57142D01*
X297518D02*
X296718Y58742D01*
X298318D01*
X297518Y57142D01*
Y74858D02*
X296718Y76458D01*
X298318D01*
X297518Y74858D01*
X351700Y78900D02*
Y80500D01*
X353300D01*
Y78900D01*
X351700D01*
X361700D02*
Y80500D01*
X363300D01*
Y78900D01*
X361700D01*
X351700Y68900D02*
Y70500D01*
X353300D01*
Y68900D01*
X351700D01*
X361700D02*
Y70500D01*
X363300D01*
Y68900D01*
X361700D01*
X351700Y58900D02*
Y60500D01*
X353300D01*
Y58900D01*
X351700D01*
X361700D02*
Y60500D01*
X363300D01*
Y58900D01*
X361700D01*
X219000Y71000D02*
Y72600D01*
X220600D01*
Y71000D01*
X219000D01*
X229000D02*
Y72600D01*
X230600D01*
Y71000D01*
X229000D01*
X239000D02*
Y72600D01*
X240600D01*
Y71000D01*
X239000D01*
X249000D02*
Y72600D01*
X250600D01*
Y71000D01*
X249000D01*
X200800Y49300D02*
Y50900D01*
X202400D01*
Y49300D01*
X200800D01*
Y39300D02*
Y40900D01*
X202400D01*
Y39300D01*
X200800D01*
X180800D02*
Y40900D01*
X182400D01*
Y39300D01*
X180800D01*
Y49300D02*
Y50900D01*
X182400D01*
Y49300D01*
X180800D01*
X170800D02*
Y50900D01*
X172400D01*
Y49300D01*
X170800D01*
Y39300D02*
Y40900D01*
X172400D01*
Y39300D01*
X170800D01*
X160800Y49300D02*
Y50900D01*
X162400D01*
Y49300D01*
X160800D01*
Y39300D02*
Y40900D01*
X162400D01*
Y39300D01*
X160800D01*
X150800Y49300D02*
Y50900D01*
X152400D01*
Y49300D01*
X150800D01*
Y39300D02*
Y40900D01*
X152400D01*
Y39300D01*
X150800D01*
X140800Y49300D02*
Y50900D01*
X142400D01*
Y49300D01*
X140800D01*
Y39300D02*
Y40900D01*
X142400D01*
Y39300D01*
X140800D01*
X130800Y49300D02*
Y50900D01*
X132400D01*
Y49300D01*
X130800D01*
Y39300D02*
Y40900D01*
X132400D01*
Y39300D01*
X130800D01*
X120800Y49300D02*
Y50900D01*
X122400D01*
Y49300D01*
X120800D01*
Y39300D02*
Y40900D01*
X122400D01*
Y39300D01*
X120800D01*
X190800D02*
Y40900D01*
X192400D01*
Y39300D01*
X190800D01*
Y49300D02*
Y50900D01*
X192400D01*
Y49300D01*
X190800D01*
X89100Y96800D02*
Y98400D01*
X90700D01*
Y96800D01*
X89100D01*
X99100D02*
Y98400D01*
X100700D01*
Y96800D01*
X99100D01*
X109100D02*
Y98400D01*
X110700D01*
Y96800D01*
X109100D01*
X110600Y357700D02*
Y359300D01*
X112200D01*
Y357700D01*
X110600D01*
X100600D02*
Y359300D01*
X102200D01*
Y357700D01*
X100600D01*
X110600Y367700D02*
Y369300D01*
X112200D01*
Y367700D01*
X110600D01*
X100600D02*
Y369300D01*
X102200D01*
Y367700D01*
X100600D01*
X110600Y377700D02*
Y379300D01*
X112200D01*
Y377700D01*
X110600D01*
X100600D02*
Y379300D01*
X102200D01*
Y377700D01*
X100600D01*
X130800Y303000D02*
Y304600D01*
X132400D01*
Y303000D01*
X130800D01*
X140800D02*
Y304600D01*
X142400D01*
Y303000D01*
X140800D01*
X150800D02*
Y304600D01*
X152400D01*
Y303000D01*
X150800D01*
X160800D02*
Y304600D01*
X162400D01*
Y303000D01*
X160800D01*
X170800D02*
Y304600D01*
X172400D01*
Y303000D01*
X170800D01*
X180800D02*
Y304600D01*
X182400D01*
Y303000D01*
X180800D01*
X56300Y277100D02*
X56700Y277500D01*
X57100D01*
X56700Y277900D01*
X57100Y278300D01*
X56700D01*
X56300Y278700D01*
X55900Y278300D01*
X55500D01*
X55900Y277900D01*
X55500Y277500D01*
X55900D01*
X56300Y277100D01*
X374200Y38200D02*
X374600Y39000D01*
X374200Y39800D01*
X375000Y39400D01*
X375800Y39800D01*
X375400Y39000D01*
X375800Y38200D01*
X375000Y38600D01*
X374200Y38200D01*
X314600Y15800D02*
Y15400D01*
X315400D01*
Y15800D01*
X315800D01*
Y16600D01*
X315400D01*
Y17000D01*
X314600D01*
Y16600D01*
X314200D01*
Y15800D01*
X314600D01*
X95800Y152100D02*
X96200Y152500D01*
X96600D01*
X96200Y152900D01*
X96600Y153300D01*
X96200D01*
X95800Y153700D01*
X95400Y153300D01*
X95000D01*
X95400Y152900D01*
X95000Y152500D01*
X95400D01*
X95800Y152100D01*
X340100Y110100D02*
Y111700D01*
X341700D01*
Y110100D01*
X340100D01*
Y100100D02*
Y101700D01*
X341700D01*
Y100100D01*
X340100D01*
X370100Y110100D02*
Y111700D01*
X371700D01*
Y110100D01*
X370100D01*
Y100100D02*
Y101700D01*
X371700D01*
Y100100D01*
X370100D01*
Y120100D02*
Y121700D01*
X371700D01*
Y120100D01*
X370100D01*
X340100D02*
Y121700D01*
X341700D01*
Y120100D01*
X340100D01*
X325343Y317302D02*
X324543Y318902D01*
X326143D01*
X325343Y317302D01*
Y335018D02*
X324543Y336618D01*
X326143D01*
X325343Y335018D01*
X298572D02*
X297772Y336618D01*
X299372D01*
X298572Y335018D01*
Y317302D02*
X297772Y318902D01*
X299372D01*
X298572Y317302D01*
X371800Y317202D02*
X371000Y318802D01*
X372600D01*
X371800Y317202D01*
Y334918D02*
X371000Y336518D01*
X372600D01*
X371800Y334918D01*
X345028D02*
X344228Y336518D01*
X345828D01*
X345028Y334918D01*
Y317202D02*
X344228Y318802D01*
X345828D01*
X345028Y317202D01*
X39900Y170604D02*
Y172204D01*
X41500D01*
Y170604D01*
X39900D01*
Y154856D02*
Y156456D01*
X41500D01*
Y154856D01*
X39900D01*
Y139108D02*
Y140708D01*
X41500D01*
Y139108D01*
X39900D01*
Y123360D02*
Y124960D01*
X41500D01*
Y123360D01*
X39900D01*
Y107612D02*
Y109212D01*
X41500D01*
Y107612D01*
X39900D01*
Y186352D02*
Y187952D01*
X41500D01*
Y186352D01*
X39900D01*
Y202100D02*
Y203700D01*
X41500D01*
Y202100D01*
X39900D01*
Y233659D02*
Y235259D01*
X41500D01*
Y233659D01*
X39900D01*
Y217911D02*
Y219511D01*
X41500D01*
Y217911D01*
X39900D01*
X298572Y279757D02*
X297772Y281357D01*
X299372D01*
X298572Y279757D01*
Y297473D02*
X297772Y299073D01*
X299372D01*
X298572Y297473D01*
X325343D02*
X324543Y299073D01*
X326143D01*
X325343Y297473D01*
Y279757D02*
X324543Y281357D01*
X326143D01*
X325343Y279757D01*
X345028Y279800D02*
X344228Y281400D01*
X345828D01*
X345028Y279800D01*
Y297516D02*
X344228Y299116D01*
X345828D01*
X345028Y297516D01*
X371800D02*
X371000Y299116D01*
X372600D01*
X371800Y297516D01*
Y279800D02*
X371000Y281400D01*
X372600D01*
X371800Y279800D01*
X25600Y352500D02*
X26000D01*
X26400Y352900D01*
X26800Y352500D01*
X27200D01*
Y352900D01*
X26800Y353300D01*
X27200Y353700D01*
Y354100D01*
X26800D01*
X26400Y353700D01*
X26000Y354100D01*
X25600D01*
Y353700D01*
X26000Y353300D01*
X25600Y352900D01*
Y352500D01*
Y372500D02*
X26000D01*
X26400Y372900D01*
X26800Y372500D01*
X27200D01*
Y372900D01*
X26800Y373300D01*
X27200Y373700D01*
Y374100D01*
X26800D01*
X26400Y373700D01*
X26000Y374100D01*
X25600D01*
Y373700D01*
X26000Y373300D01*
X25600Y372900D01*
Y372500D01*
X64000Y372400D02*
Y374000D01*
X65600D01*
Y372400D01*
X64000D01*
Y358621D02*
Y360221D01*
X65600D01*
Y358621D01*
X64000D01*
X45416Y41000D02*
X46216Y41800D01*
X47016Y41000D01*
X46216Y40200D01*
X45416Y41000D01*
Y48874D02*
X46216Y49674D01*
X47016Y48874D01*
X46216Y48074D01*
X45416Y48874D01*
Y56748D02*
X46216Y57548D01*
X47016Y56748D01*
X46216Y55948D01*
X45416Y56748D01*
Y33126D02*
X46216Y33926D01*
X47016Y33126D01*
X46216Y32326D01*
X45416Y33126D01*
Y25252D02*
X46216Y26052D01*
X47016Y25252D01*
X46216Y24452D01*
X45416Y25252D01*
X37542Y41000D02*
X38342Y41800D01*
X39142Y41000D01*
X38342Y40200D01*
X37542Y41000D01*
Y48874D02*
X38342Y49674D01*
X39142Y48874D01*
X38342Y48074D01*
X37542Y48874D01*
Y56748D02*
X38342Y57548D01*
X39142Y56748D01*
X38342Y55948D01*
X37542Y56748D01*
Y33126D02*
X38342Y33926D01*
X39142Y33126D01*
X38342Y32326D01*
X37542Y33126D01*
Y25252D02*
X38342Y26052D01*
X39142Y25252D01*
X38342Y24452D01*
X37542Y25252D01*
X29668D02*
X30468Y26052D01*
X31268Y25252D01*
X30468Y24452D01*
X29668Y25252D01*
Y33126D02*
X30468Y33926D01*
X31268Y33126D01*
X30468Y32326D01*
X29668Y33126D01*
Y41000D02*
X30468Y41800D01*
X31268Y41000D01*
X30468Y40200D01*
X29668Y41000D01*
Y48874D02*
X30468Y49674D01*
X31268Y48874D01*
X30468Y48074D01*
X29668Y48874D01*
Y56748D02*
X30468Y57548D01*
X31268Y56748D01*
X30468Y55948D01*
X29668Y56748D01*
X21794Y41000D02*
X22594Y41800D01*
X23394Y41000D01*
X22594Y40200D01*
X21794Y41000D01*
Y33126D02*
X22594Y33926D01*
X23394Y33126D01*
X22594Y32326D01*
X21794Y33126D01*
Y25252D02*
X22594Y26052D01*
X23394Y25252D01*
X22594Y24452D01*
X21794Y25252D01*
Y48874D02*
X22594Y49674D01*
X23394Y48874D01*
X22594Y48074D01*
X21794Y48874D01*
Y56748D02*
X22594Y57548D01*
X23394Y56748D01*
X22594Y55948D01*
X21794Y56748D01*
X97949Y22400D02*
X98749Y23200D01*
X99549Y22400D01*
X98749Y21600D01*
X97949Y22400D01*
X90075D02*
X90875Y23200D01*
X91675Y22400D01*
X90875Y21600D01*
X90075Y22400D01*
X325400Y363700D02*
X325800D01*
X326200Y364100D01*
X326600Y363700D01*
X327000D01*
Y364100D01*
X326600Y364500D01*
X327000Y364900D01*
Y365300D01*
X326600D01*
X326200Y364900D01*
X325800Y365300D01*
X325400D01*
Y364900D01*
X325800Y364500D01*
X325400Y364100D01*
Y363700D01*
X305400D02*
X305800D01*
X306200Y364100D01*
X306600Y363700D01*
X307000D01*
Y364100D01*
X306600Y364500D01*
X307000Y364900D01*
Y365300D01*
X306600D01*
X306200Y364900D01*
X305800Y365300D01*
X305400D01*
Y364900D01*
X305800Y364500D01*
X305400Y364100D01*
Y363700D01*
X84800Y197800D02*
Y199400D01*
X86400D01*
Y197800D01*
X84800D01*
X85200Y198200D02*
Y199000D01*
X86000D01*
Y198200D01*
X85200D01*
X94800Y197800D02*
Y199400D01*
X96400D01*
Y197800D01*
X94800D01*
X95200Y198200D02*
Y199000D01*
X96000D01*
Y198200D01*
X95200D01*
X84800Y207800D02*
Y209400D01*
X86400D01*
Y207800D01*
X84800D01*
X85200Y208200D02*
Y209000D01*
X86000D01*
Y208200D01*
X85200D01*
X94800Y207800D02*
Y209400D01*
X96400D01*
Y207800D01*
X94800D01*
X95200Y208200D02*
Y209000D01*
X96000D01*
Y208200D01*
X95200D01*
X94800Y217800D02*
Y219400D01*
X96400D01*
Y217800D01*
X94800D01*
X95200Y218200D02*
Y219000D01*
X96000D01*
Y218200D01*
X95200D01*
X94800Y227800D02*
Y229400D01*
X96400D01*
Y227800D01*
X94800D01*
X95200Y228200D02*
Y229000D01*
X96000D01*
Y228200D01*
X95200D01*
X94800Y237800D02*
Y239400D01*
X96400D01*
Y237800D01*
X94800D01*
X95200Y238200D02*
Y239000D01*
X96000D01*
Y238200D01*
X95200D01*
X94800Y247800D02*
Y249400D01*
X96400D01*
Y247800D01*
X94800D01*
X95200Y248200D02*
Y249000D01*
X96000D01*
Y248200D01*
X95200D01*
X94800Y257800D02*
Y259400D01*
X96400D01*
Y257800D01*
X94800D01*
X95200Y258200D02*
Y259000D01*
X96000D01*
Y258200D01*
X95200D01*
X94800Y267800D02*
Y269400D01*
X96400D01*
Y267800D01*
X94800D01*
X95200Y268200D02*
Y269000D01*
X96000D01*
Y268200D01*
X95200D01*
X94800Y277800D02*
Y279400D01*
X96400D01*
Y277800D01*
X94800D01*
X95200Y278200D02*
Y279000D01*
X96000D01*
Y278200D01*
X95200D01*
X94800Y287800D02*
Y289400D01*
X96400D01*
Y287800D01*
X94800D01*
X95200Y288200D02*
Y289000D01*
X96000D01*
Y288200D01*
X95200D01*
X84800Y217800D02*
Y219400D01*
X86400D01*
Y217800D01*
X84800D01*
X85200Y218200D02*
Y219000D01*
X86000D01*
Y218200D01*
X85200D01*
X84800Y227800D02*
Y229400D01*
X86400D01*
Y227800D01*
X84800D01*
X85200Y228200D02*
Y229000D01*
X86000D01*
Y228200D01*
X85200D01*
X84800Y237800D02*
Y239400D01*
X86400D01*
Y237800D01*
X84800D01*
X85200Y238200D02*
Y239000D01*
X86000D01*
Y238200D01*
X85200D01*
X84800Y247800D02*
Y249400D01*
X86400D01*
Y247800D01*
X84800D01*
X85200Y248200D02*
Y249000D01*
X86000D01*
Y248200D01*
X85200D01*
X84800Y257800D02*
Y259400D01*
X86400D01*
Y257800D01*
X84800D01*
X85200Y258200D02*
Y259000D01*
X86000D01*
Y258200D01*
X85200D01*
X84800Y267800D02*
Y269400D01*
X86400D01*
Y267800D01*
X84800D01*
X85200Y268200D02*
Y269000D01*
X86000D01*
Y268200D01*
X85200D01*
X84800Y277800D02*
Y279400D01*
X86400D01*
Y277800D01*
X84800D01*
X85200Y278200D02*
Y279000D01*
X86000D01*
Y278200D01*
X85200D01*
X84800Y287800D02*
Y289400D01*
X86400D01*
Y287800D01*
X84800D01*
X85200Y288200D02*
Y289000D01*
X86000D01*
Y288200D01*
X85200D01*
X132800Y193767D02*
Y195367D01*
X134400D01*
Y193767D01*
X132800D01*
X122800D02*
Y195367D01*
X124400D01*
Y193767D01*
X122800D01*
X132800Y203767D02*
Y205367D01*
X134400D01*
Y203767D01*
X132800D01*
X122800D02*
Y205367D01*
X124400D01*
Y203767D01*
X122800D01*
X132800Y213767D02*
Y215367D01*
X134400D01*
Y213767D01*
X132800D01*
X122800D02*
Y215367D01*
X124400D01*
Y213767D01*
X122800D01*
X198000Y257800D02*
Y259400D01*
X199600D01*
Y257800D01*
X198000D01*
Y267800D02*
Y269400D01*
X199600D01*
Y267800D01*
X198000D01*
X208000Y257800D02*
Y259400D01*
X209600D01*
Y257800D01*
X208000D01*
Y267800D02*
Y269400D01*
X209600D01*
Y267800D01*
X208000D01*
X218000Y257800D02*
Y259400D01*
X219600D01*
Y257800D01*
X218000D01*
Y267800D02*
Y269400D01*
X219600D01*
Y267800D01*
X218000D01*
X228000Y257800D02*
Y259400D01*
X229600D01*
Y257800D01*
X228000D01*
Y267800D02*
Y269400D01*
X229600D01*
Y267800D01*
X228000D01*
X238000Y257800D02*
Y259400D01*
X239600D01*
Y257800D01*
X238000D01*
Y267800D02*
Y269400D01*
X239600D01*
Y267800D01*
X238000D01*
X270700Y231900D02*
Y233500D01*
X272300D01*
Y231900D01*
X270700D01*
Y171900D02*
Y173500D01*
X272300D01*
Y171900D01*
X270700D01*
Y181900D02*
Y183500D01*
X272300D01*
Y181900D01*
X270700D01*
Y191900D02*
Y193500D01*
X272300D01*
Y191900D01*
X270700D01*
Y201900D02*
Y203500D01*
X272300D01*
Y201900D01*
X270700D01*
Y211900D02*
Y213500D01*
X272300D01*
Y211900D01*
X270700D01*
Y221900D02*
Y223500D01*
X272300D01*
Y221900D01*
X270700D01*
X249700Y322600D02*
X250500Y323400D01*
X251300Y322600D01*
X250500Y321800D01*
X249700Y322600D01*
X259542D02*
X260343Y323400D01*
X261142Y322600D01*
X260343Y321800D01*
X259542Y322600D01*
X241400Y161800D02*
X240600Y163400D01*
X242200D01*
X241400Y161800D01*
Y162200D02*
X241000Y163000D01*
X241800D01*
X241400Y162200D01*
X83500Y177800D02*
X82700Y179400D01*
X84300D01*
X83500Y177800D01*
Y178200D02*
X83100Y179000D01*
X83900D01*
X83500Y178200D01*
X371599Y355001D02*
X370799Y356601D01*
X372399D01*
X371599Y355001D01*
Y355401D02*
X371199Y356201D01*
X371999D01*
X371599Y355401D01*
X277201Y45501D02*
X276401Y47101D01*
X278001D01*
X277201Y45501D01*
Y45901D02*
X276801Y46701D01*
X277601D01*
X277201Y45901D01*
X141000Y259200D02*
X140200Y260800D01*
X141800D01*
X141000Y259200D01*
Y259600D02*
X140600Y260400D01*
X141400D01*
X141000Y259600D01*
X227600Y337400D02*
X226800Y339000D01*
X228400D01*
X227600Y337400D01*
Y337800D02*
X227200Y338600D01*
X228000D01*
X227600Y337800D01*
X129400Y337400D02*
X128600Y339000D01*
X130200D01*
X129400Y337400D01*
Y337800D02*
X129000Y338600D01*
X129800D01*
X129400Y337800D01*
X140400Y107612D02*
X139600Y109212D01*
X141200D01*
X140400Y107612D01*
Y108012D02*
X140000Y108812D01*
X140800D01*
X140400Y108012D01*
X246300Y49300D02*
X245500Y50900D01*
X247100D01*
X246300Y49300D01*
Y49700D02*
X245900Y50500D01*
X246700D01*
X246300Y49700D01*
X242500Y275500D02*
X241700Y277100D01*
X243300D01*
X242500Y275500D01*
Y275900D02*
X242100Y276700D01*
X242900D01*
X242500Y275900D01*
X241300Y96500D02*
X240500Y98100D01*
X242100D01*
X241300Y96500D01*
Y96900D02*
X240900Y97700D01*
X241700D01*
X241300Y96900D01*
X165800Y115800D02*
X165000Y117400D01*
X166600D01*
X165800Y115800D01*
Y116200D02*
X165400Y117000D01*
X166200D01*
X165800Y116200D01*
X152900Y114500D02*
X153300Y114900D01*
X153700D01*
X153300Y115300D01*
X153700Y115700D01*
X153300D01*
X152900Y116100D01*
X152500Y115700D01*
X152100D01*
X152500Y115300D01*
X152100Y114900D01*
X152500D01*
X152900Y114500D01*
Y114900D02*
X153100Y115100D01*
X153300D01*
X153100Y115300D01*
X153300Y115500D01*
X153100D01*
X152900Y115700D01*
X152700Y115500D01*
X152500D01*
X152700Y115300D01*
X152500Y115100D01*
X152700D01*
X152900Y114900D01*
X143200Y114500D02*
X143600Y114900D01*
X144000D01*
X143600Y115300D01*
X144000Y115700D01*
X143600D01*
X143200Y116100D01*
X142800Y115700D01*
X142400D01*
X142800Y115300D01*
X142400Y114900D01*
X142800D01*
X143200Y114500D01*
Y114900D02*
X143400Y115100D01*
X143600D01*
X143400Y115300D01*
X143600Y115500D01*
X143400D01*
X143200Y115700D01*
X143000Y115500D01*
X142800D01*
X143000Y115300D01*
X142800Y115100D01*
X143000D01*
X143200Y114900D01*
X144600Y165300D02*
X143800Y166900D01*
X145400D01*
X144600Y165300D01*
Y165700D02*
X144200Y166500D01*
X145000D01*
X144600Y165700D01*
X183071Y172200D02*
X182272Y173800D01*
X183871D01*
X183071Y172200D01*
Y172600D02*
X182671Y173400D01*
X183472D01*
X183071Y172600D01*
X148800Y198700D02*
X148000Y200300D01*
X149600D01*
X148800Y198700D01*
Y199100D02*
X148400Y199900D01*
X149200D01*
X148800Y199100D01*
X113400Y175200D02*
X112600Y176800D01*
X114200D01*
X113400Y175200D01*
Y175600D02*
X113000Y176400D01*
X113800D01*
X113400Y175600D01*
X228900Y44500D02*
X228100Y46100D01*
X229700D01*
X228900Y44500D01*
Y44900D02*
X228500Y45700D01*
X229300D01*
X228900Y44900D01*
X257500Y54100D02*
X256700Y55700D01*
X258300D01*
X257500Y54100D01*
Y54500D02*
X257100Y55300D01*
X257900D01*
X257500Y54500D01*
X281100Y94001D02*
X280300Y95601D01*
X281900D01*
X281100Y94001D01*
Y94401D02*
X280700Y95201D01*
X281500D01*
X281100Y94401D01*
Y104399D02*
X280300Y105999D01*
X281900D01*
X281100Y104399D01*
Y104798D02*
X280700Y105598D01*
X281500D01*
X281100Y104798D01*
Y114796D02*
X280300Y116396D01*
X281900D01*
X281100Y114796D01*
Y115196D02*
X280700Y115996D01*
X281500D01*
X281100Y115196D01*
Y125194D02*
X280300Y126794D01*
X281900D01*
X281100Y125194D01*
Y125594D02*
X280700Y126394D01*
X281500D01*
X281100Y125594D01*
X358501Y288801D02*
X357701Y290401D01*
X359301D01*
X358501Y288801D01*
Y289201D02*
X358101Y290001D01*
X358901D01*
X358501Y289201D01*
X191000Y185500D02*
X190200Y187100D01*
X191800D01*
X191000Y185500D01*
Y185900D02*
X190600Y186700D01*
X191400D01*
X191000Y185900D01*
Y176300D02*
X190200Y177900D01*
X191800D01*
X191000Y176300D01*
Y176700D02*
X190600Y177500D01*
X191400D01*
X191000Y176700D01*
X214000Y158400D02*
X213200Y160000D01*
X214800D01*
X214000Y158400D01*
Y158800D02*
X213600Y159600D01*
X214400D01*
X214000Y158800D01*
X210600Y160000D02*
X209800Y161600D01*
X211400D01*
X210600Y160000D01*
Y160400D02*
X210200Y161200D01*
X211000D01*
X210600Y160400D01*
X216500Y215700D02*
X215700Y217300D01*
X217300D01*
X216500Y215700D01*
Y216100D02*
X216100Y216900D01*
X216900D01*
X216500Y216100D01*
X207700Y215700D02*
X206900Y217300D01*
X208500D01*
X207700Y215700D01*
Y216100D02*
X207300Y216900D01*
X208100D01*
X207700Y216100D01*
X177300Y206600D02*
X176500Y208200D01*
X178100D01*
X177300Y206600D01*
Y207000D02*
X176900Y207800D01*
X177700D01*
X177300Y207000D01*
X177166Y215735D02*
X176366Y217335D01*
X177966D01*
X177166Y215735D01*
Y216135D02*
X176766Y216935D01*
X177566D01*
X177166Y216135D01*
X217204Y185500D02*
X216404Y187100D01*
X218004D01*
X217204Y185500D01*
Y185900D02*
X216804Y186700D01*
X217604D01*
X217204Y185900D01*
X208600Y185500D02*
X207800Y187100D01*
X209400D01*
X208600Y185500D01*
Y185900D02*
X208200Y186700D01*
X209000D01*
X208600Y185900D01*
X217300Y176400D02*
X216500Y178000D01*
X218100D01*
X217300Y176400D01*
Y176800D02*
X216900Y177600D01*
X217700D01*
X217300Y176800D01*
X177300Y185400D02*
X176500Y187000D01*
X178100D01*
X177300Y185400D01*
Y185800D02*
X176900Y186600D01*
X177700D01*
X177300Y185800D01*
Y176500D02*
X176500Y178100D01*
X178100D01*
X177300Y176500D01*
Y176900D02*
X176900Y177700D01*
X177700D01*
X177300Y176900D01*
X82400Y63600D02*
X81600Y65200D01*
X83200D01*
X82400Y63600D01*
Y64000D02*
X82000Y64800D01*
X82800D01*
X82400Y64000D01*
X80600Y61400D02*
X79800Y63000D01*
X81400D01*
X80600Y61400D01*
Y61800D02*
X80200Y62600D01*
X81000D01*
X80600Y61800D01*
X78900Y59000D02*
X78100Y60600D01*
X79700D01*
X78900Y59000D01*
Y59400D02*
X78500Y60200D01*
X79300D01*
X78900Y59400D01*
X122000Y73100D02*
X121200Y74700D01*
X122800D01*
X122000Y73100D01*
Y73500D02*
X121600Y74300D01*
X122400D01*
X122000Y73500D01*
X241600Y208700D02*
X240800Y210300D01*
X242400D01*
X241600Y208700D01*
Y209100D02*
X241200Y209900D01*
X242000D01*
X241600Y209100D01*
X243100Y211800D02*
X242300Y213400D01*
X243900D01*
X243100Y211800D01*
Y212200D02*
X242700Y213000D01*
X243500D01*
X243100Y212200D01*
X240266Y214900D02*
X239466Y216500D01*
X241066D01*
X240266Y214900D01*
Y215300D02*
X239866Y216100D01*
X240666D01*
X240266Y215300D01*
D12*
X19896Y322600D02*
G03*
X19896Y322600I-800J0D01*
G01*
X38400D02*
G03*
X38400Y322600I-800J0D01*
G01*
X56904D02*
G03*
X56904Y322600I-800J0D01*
G01*
X108723Y252200D02*
G03*
X108723Y252200I-800J0D01*
G01*
X245600Y156000D02*
G03*
X245600Y156000I-800J0D01*
G01*
X68700Y198600D02*
G03*
X68700Y198600I-800J0D01*
G01*
X272300Y267600D02*
G03*
X272300Y267600I-800J0D01*
G01*
X245300Y94300D02*
G03*
X245300Y94300I-800J0D01*
G01*
X365200Y190500D02*
G03*
X365200Y190500I-800J0D01*
G01*
X358767Y238833D02*
G03*
X358767Y238833I-800J0D01*
G01*
X306600Y72600D02*
G03*
X306600Y72600I-800J0D01*
G01*
X291600Y238500D02*
G03*
X291600Y238500I-800J0D01*
G01*
Y258300D02*
G03*
X291600Y258300I-800J0D01*
G01*
X355600Y269100D02*
G03*
X355600Y269100I-800J0D01*
G01*
X351200Y265600D02*
G03*
X351200Y265600I-800J0D01*
G01*
X259100Y285900D02*
G03*
X259100Y285900I-800J0D01*
G01*
X222500Y342400D02*
G03*
X222500Y342400I-800J0D01*
G01*
X353401Y355801D02*
G03*
X353401Y355801I-800J0D01*
G01*
X320900Y93600D02*
G03*
X320900Y93600I-800J0D01*
G01*
X224600Y130100D02*
G03*
X224600Y130100I-800J0D01*
G01*
X218700Y124200D02*
G03*
X218700Y124200I-800J0D01*
G01*
X265400Y133700D02*
G03*
X265400Y133700I-800J0D01*
G01*
X144300Y136500D02*
G03*
X144300Y136500I-800J0D01*
G01*
X153700D02*
G03*
X153700Y136500I-800J0D01*
G01*
X211000Y125600D02*
G03*
X211000Y125600I-800J0D01*
G01*
X220201Y105501D02*
G03*
X220201Y105501I-800J0D01*
G01*
X197799Y120901D02*
G03*
X197799Y120901I-800J0D01*
G01*
X179399D02*
G03*
X179399Y120901I-800J0D01*
G01*
X283200Y152400D02*
G03*
X283200Y152400I-800J0D01*
G01*
X270100Y65700D02*
G03*
X270100Y65700I-800J0D01*
G01*
X281799Y84501D02*
G03*
X281799Y84501I-800J0D01*
G01*
X113500Y258400D02*
G03*
X113500Y258400I-800J0D01*
G01*
X107800Y198500D02*
G03*
X107800Y198500I-800J0D01*
G01*
X212100Y37300D02*
G03*
X212100Y37300I-800J0D01*
G01*
X152700Y88300D02*
G03*
X152700Y88300I-800J0D01*
G01*
X143300D02*
G03*
X143300Y88300I-800J0D01*
G01*
X84986Y54386D02*
G03*
X84986Y54386I-800J0D01*
G01*
X100650Y49350D02*
G03*
X100650Y49350I-800J0D01*
G01*
X77300Y34600D02*
G03*
X77300Y34600I-800J0D01*
G01*
X67600Y27600D02*
G03*
X67600Y27600I-800J0D01*
G01*
X77400D02*
G03*
X77400Y27600I-800J0D01*
G01*
X67900Y34500D02*
G03*
X67900Y34500I-800J0D01*
G01*
X381400Y364200D02*
G03*
X381400Y364200I-800J0D01*
G01*
X378200Y268900D02*
G03*
X378200Y268900I-800J0D01*
G01*
X162200Y372900D02*
G03*
X162200Y372900I-800J0D01*
G01*
X82100Y375100D02*
G03*
X82100Y375100I-800J0D01*
G01*
X76000Y369300D02*
G03*
X76000Y369300I-800J0D01*
G01*
Y381100D02*
G03*
X76000Y381100I-800J0D01*
G01*
X283750Y363600D02*
G03*
X283750Y363600I-800J0D01*
G01*
X243000Y360900D02*
G03*
X243000Y360900I-800J0D01*
G01*
Y368400D02*
G03*
X243000Y368400I-800J0D01*
G01*
Y354200D02*
G03*
X243000Y354200I-800J0D01*
G01*
X238200D02*
G03*
X238200Y354200I-800J0D01*
G01*
Y361000D02*
G03*
X238200Y361000I-800J0D01*
G01*
Y368400D02*
G03*
X238200Y368400I-800J0D01*
G01*
X208400Y362800D02*
G03*
X208400Y362800I-800J0D01*
G01*
X213400Y355200D02*
G03*
X213400Y355200I-800J0D01*
G01*
D13*
X108323Y252200D02*
G03*
X108323Y252200I-400J0D01*
G01*
X245200Y156000D02*
G03*
X245200Y156000I-400J0D01*
G01*
X68300Y198600D02*
G03*
X68300Y198600I-400J0D01*
G01*
X271900Y267600D02*
G03*
X271900Y267600I-400J0D01*
G01*
X244900Y94300D02*
G03*
X244900Y94300I-400J0D01*
G01*
X364800Y190500D02*
G03*
X364800Y190500I-400J0D01*
G01*
X358367Y238833D02*
G03*
X358367Y238833I-400J0D01*
G01*
X306200Y72600D02*
G03*
X306200Y72600I-400J0D01*
G01*
X291200Y238500D02*
G03*
X291200Y238500I-400J0D01*
G01*
Y258300D02*
G03*
X291200Y258300I-400J0D01*
G01*
X355200Y269100D02*
G03*
X355200Y269100I-400J0D01*
G01*
X350800Y265600D02*
G03*
X350800Y265600I-400J0D01*
G01*
X258700Y285900D02*
G03*
X258700Y285900I-400J0D01*
G01*
X222100Y342400D02*
G03*
X222100Y342400I-400J0D01*
G01*
X353001Y355801D02*
G03*
X353001Y355801I-400J0D01*
G01*
X320500Y93600D02*
G03*
X320500Y93600I-400J0D01*
G01*
X224200Y130100D02*
G03*
X224200Y130100I-400J0D01*
G01*
X218300Y124200D02*
G03*
X218300Y124200I-400J0D01*
G01*
X265000Y133700D02*
G03*
X265000Y133700I-400J0D01*
G01*
X143900Y136500D02*
G03*
X143900Y136500I-400J0D01*
G01*
X153300D02*
G03*
X153300Y136500I-400J0D01*
G01*
X210600Y125600D02*
G03*
X210600Y125600I-400J0D01*
G01*
X219801Y105501D02*
G03*
X219801Y105501I-400J0D01*
G01*
X197399Y120901D02*
G03*
X197399Y120901I-400J0D01*
G01*
X178999D02*
G03*
X178999Y120901I-400J0D01*
G01*
X282800Y152400D02*
G03*
X282800Y152400I-400J0D01*
G01*
X269700Y65700D02*
G03*
X269700Y65700I-400J0D01*
G01*
X281399Y84501D02*
G03*
X281399Y84501I-400J0D01*
G01*
X113100Y258400D02*
G03*
X113100Y258400I-400J0D01*
G01*
X107400Y198500D02*
G03*
X107400Y198500I-400J0D01*
G01*
X211700Y37300D02*
G03*
X211700Y37300I-400J0D01*
G01*
X152300Y88300D02*
G03*
X152300Y88300I-400J0D01*
G01*
X142900D02*
G03*
X142900Y88300I-400J0D01*
G01*
X84586Y54386D02*
G03*
X84586Y54386I-400J0D01*
G01*
X100250Y49350D02*
G03*
X100250Y49350I-400J0D01*
G01*
X76900Y34600D02*
G03*
X76900Y34600I-400J0D01*
G01*
X67200Y27600D02*
G03*
X67200Y27600I-400J0D01*
G01*
X77000D02*
G03*
X77000Y27600I-400J0D01*
G01*
X67500Y34500D02*
G03*
X67500Y34500I-400J0D01*
G01*
X381000Y364200D02*
G03*
X381000Y364200I-400J0D01*
G01*
X377800Y268900D02*
G03*
X377800Y268900I-400J0D01*
G01*
X161800Y372900D02*
G03*
X161800Y372900I-400J0D01*
G01*
X81700Y375100D02*
G03*
X81700Y375100I-400J0D01*
G01*
X75600Y369300D02*
G03*
X75600Y369300I-400J0D01*
G01*
Y381100D02*
G03*
X75600Y381100I-400J0D01*
G01*
X283350Y363600D02*
G03*
X283350Y363600I-400J0D01*
G01*
X242600Y360900D02*
G03*
X242600Y360900I-400J0D01*
G01*
Y368400D02*
G03*
X242600Y368400I-400J0D01*
G01*
Y354200D02*
G03*
X242600Y354200I-400J0D01*
G01*
X237800D02*
G03*
X237800Y354200I-400J0D01*
G01*
Y361000D02*
G03*
X237800Y361000I-400J0D01*
G01*
Y368400D02*
G03*
X237800Y368400I-400J0D01*
G01*
X208000Y362800D02*
G03*
X208000Y362800I-400J0D01*
G01*
X213000Y355200D02*
G03*
X213000Y355200I-400J0D01*
G01*
M02*
