G04*
G04 #@! TF.GenerationSoftware,Altium Limited,Altium Designer,19.0.4 (130)*
G04*
G04 Layer_Color=128*
%FSLAX25Y25*%
%MOIN*%
G70*
G01*
G75*
%ADD22R,0.06000X0.05000*%
%ADD23R,0.05000X0.05000*%
%ADD24R,0.05000X0.05000*%
%ADD37R,0.39370X0.42520*%
%ADD38R,0.07900X0.05900*%
%ADD39R,0.07900X0.15000*%
%ADD97R,0.07087X0.06693*%
%ADD98R,0.07000X0.10000*%
D22*
X280100Y247700D02*
D03*
X271100D02*
D03*
D23*
X361400Y100800D02*
D03*
X352399Y100801D02*
D03*
X361400Y110700D02*
D03*
X352399Y110701D02*
D03*
X361400Y120600D02*
D03*
X352399Y120601D02*
D03*
X320100Y100900D02*
D03*
X329101Y100899D02*
D03*
X320100Y110800D02*
D03*
X329101Y110799D02*
D03*
X320100Y120700D02*
D03*
X329101Y120699D02*
D03*
X281100Y125994D02*
D03*
X290101Y125994D02*
D03*
X281100Y115596D02*
D03*
X290101Y115596D02*
D03*
X281100Y105199D02*
D03*
X290101Y105198D02*
D03*
X280999Y84501D02*
D03*
X290000Y84500D02*
D03*
X281100Y94801D02*
D03*
X290101Y94800D02*
D03*
X103700Y208600D02*
D03*
X112701Y208599D02*
D03*
X103700Y218700D02*
D03*
X112701Y218699D02*
D03*
X103700Y228600D02*
D03*
X112701Y228599D02*
D03*
Y238599D02*
D03*
X103700Y238600D02*
D03*
Y258600D02*
D03*
X112701Y258599D02*
D03*
X144600Y159400D02*
D03*
X153601Y159399D02*
D03*
Y150199D02*
D03*
X144600Y150200D02*
D03*
X207400Y370600D02*
D03*
X198399Y370601D02*
D03*
X207300Y379400D02*
D03*
X198299Y379401D02*
D03*
X380600Y355800D02*
D03*
X371599Y355801D02*
D03*
X214000Y153500D02*
D03*
X204999Y153501D02*
D03*
X207599Y216501D02*
D03*
X216600Y216500D02*
D03*
D24*
X290100Y57900D02*
D03*
X290101Y66901D02*
D03*
X278900D02*
D03*
X278899Y57900D02*
D03*
X277200Y37300D02*
D03*
X277201Y46301D02*
D03*
X114499Y40399D02*
D03*
X114500Y49400D02*
D03*
X177299Y207299D02*
D03*
X177300Y216300D02*
D03*
X177301Y186401D02*
D03*
X177300Y177400D02*
D03*
X191001Y186401D02*
D03*
X191000Y177400D02*
D03*
X217301Y186401D02*
D03*
X217300Y177400D02*
D03*
X208601Y186401D02*
D03*
X208600Y177400D02*
D03*
X290900Y247700D02*
D03*
X290899Y238699D02*
D03*
X358501Y289601D02*
D03*
X358500Y280600D02*
D03*
X312001Y326901D02*
D03*
X312000Y317900D02*
D03*
X358601Y326901D02*
D03*
X358600Y317900D02*
D03*
X312101Y289701D02*
D03*
X312100Y280700D02*
D03*
D37*
X32436Y41000D02*
D03*
D38*
X302200Y247900D02*
D03*
Y238845D02*
D03*
Y256955D02*
D03*
D39*
X327554Y247833D02*
D03*
D97*
X258300Y263600D02*
D03*
Y247800D02*
D03*
D98*
X231400Y237300D02*
D03*
X216400Y237300D02*
D03*
M02*
