G04*
G04 #@! TF.GenerationSoftware,Altium Limited,Altium Designer,19.0.4 (130)*
G04*
G04 Layer_Color=128*
%FSLAX25Y25*%
%MOIN*%
G70*
G01*
G75*
%ADD10C,0.01000*%
%ADD11C,0.00200*%
D10*
X387780Y385827D02*
G03*
X379921Y393686I-7859J0D01*
G01*
X7874D02*
G03*
X15Y385827I0J-7859D01*
G01*
X0Y7874D02*
G03*
X7874Y0I7874J0D01*
G01*
X379921D02*
G03*
X387795Y7874I0J7874D01*
G01*
X7844Y393686D02*
X379921D01*
X-15Y7874D02*
Y385827D01*
X7874Y-15D02*
X379906D01*
X387795Y7874D02*
Y385827D01*
X387795D02*
X387795D01*
D11*
X84828Y335300D02*
X88372D01*
X86600Y333528D02*
Y337072D01*
X84828Y325300D02*
X88372D01*
X86600Y323528D02*
Y327072D01*
X17128Y322600D02*
X21065D01*
X19096Y320632D02*
Y324569D01*
X35631Y322600D02*
X39568D01*
X37600Y320632D02*
Y324569D01*
X54135Y322600D02*
X58072D01*
X56104Y320632D02*
Y324569D01*
X250128Y81900D02*
X253672D01*
X251900Y80128D02*
Y83672D01*
X240128Y81900D02*
X243672D01*
X241900Y80128D02*
Y83672D01*
X180128Y81900D02*
X183672D01*
X181900Y80128D02*
Y83672D01*
X190128Y81900D02*
X193672D01*
X191900Y80128D02*
Y83672D01*
X200128Y81900D02*
X203672D01*
X201900Y80128D02*
Y83672D01*
X210128Y81900D02*
X213672D01*
X211900Y80128D02*
Y83672D01*
X220128Y81900D02*
X223672D01*
X221900Y80128D02*
Y83672D01*
X230128Y81900D02*
X233672D01*
X231900Y80128D02*
Y83672D01*
X268778Y75658D02*
X272715D01*
X270746Y73690D02*
Y77627D01*
X268778Y57942D02*
X272715D01*
X270746Y55973D02*
Y59910D01*
X295550Y57942D02*
X299487D01*
X297518Y55973D02*
Y59910D01*
X295550Y75658D02*
X299487D01*
X297518Y73690D02*
Y77627D01*
X350728Y79700D02*
X354272D01*
X352500Y77928D02*
Y81472D01*
X360728Y79700D02*
X364272D01*
X362500Y77928D02*
Y81472D01*
X350728Y69700D02*
X354272D01*
X352500Y67928D02*
Y71472D01*
X360728Y69700D02*
X364272D01*
X362500Y67928D02*
Y71472D01*
X350728Y59700D02*
X354272D01*
X352500Y57928D02*
Y61472D01*
X360728Y59700D02*
X364272D01*
X362500Y57928D02*
Y61472D01*
X218028Y71800D02*
X221572D01*
X219800Y70028D02*
Y73572D01*
X228028Y71800D02*
X231572D01*
X229800Y70028D02*
Y73572D01*
X238028Y71800D02*
X241572D01*
X239800Y70028D02*
Y73572D01*
X248028Y71800D02*
X251572D01*
X249800Y70028D02*
Y73572D01*
X199828Y50100D02*
X203372D01*
X201600Y48328D02*
Y51872D01*
X199828Y40100D02*
X203372D01*
X201600Y38328D02*
Y41872D01*
X179828Y40100D02*
X183372D01*
X181600Y38328D02*
Y41872D01*
X179828Y50100D02*
X183372D01*
X181600Y48328D02*
Y51872D01*
X169828Y50100D02*
X173372D01*
X171600Y48328D02*
Y51872D01*
X169828Y40100D02*
X173372D01*
X171600Y38328D02*
Y41872D01*
X159828Y50100D02*
X163372D01*
X161600Y48328D02*
Y51872D01*
X159828Y40100D02*
X163372D01*
X161600Y38328D02*
Y41872D01*
X149828Y50100D02*
X153372D01*
X151600Y48328D02*
Y51872D01*
X149828Y40100D02*
X153372D01*
X151600Y38328D02*
Y41872D01*
X139828Y50100D02*
X143372D01*
X141600Y48328D02*
Y51872D01*
X139828Y40100D02*
X143372D01*
X141600Y38328D02*
Y41872D01*
X129828Y50100D02*
X133372D01*
X131600Y48328D02*
Y51872D01*
X129828Y40100D02*
X133372D01*
X131600Y38328D02*
Y41872D01*
X119828Y50100D02*
X123372D01*
X121600Y48328D02*
Y51872D01*
X119828Y40100D02*
X123372D01*
X121600Y38328D02*
Y41872D01*
X189828Y40100D02*
X193372D01*
X191600Y38328D02*
Y41872D01*
X189828Y50100D02*
X193372D01*
X191600Y48328D02*
Y51872D01*
X88128Y97600D02*
X91672D01*
X89900Y95828D02*
Y99372D01*
X98128Y97600D02*
X101672D01*
X99900Y95828D02*
Y99372D01*
X108128Y97600D02*
X111672D01*
X109900Y95828D02*
Y99372D01*
X109628Y358500D02*
X113172D01*
X111400Y356728D02*
Y360272D01*
X99628Y358500D02*
X103172D01*
X101400Y356728D02*
Y360272D01*
X109628Y368500D02*
X113172D01*
X111400Y366728D02*
Y370272D01*
X99628Y368500D02*
X103172D01*
X101400Y366728D02*
Y370272D01*
X109628Y378500D02*
X113172D01*
X111400Y376728D02*
Y380272D01*
X99628Y378500D02*
X103172D01*
X101400Y376728D02*
Y380272D01*
X129828Y303800D02*
X133372D01*
X131600Y302028D02*
Y305572D01*
X139828Y303800D02*
X143372D01*
X141600Y302028D02*
Y305572D01*
X149828Y303800D02*
X153372D01*
X151600Y302028D02*
Y305572D01*
X159828Y303800D02*
X163372D01*
X161600Y302028D02*
Y305572D01*
X169828Y303800D02*
X173372D01*
X171600Y302028D02*
Y305572D01*
X179828Y303800D02*
X183372D01*
X181600Y302028D02*
Y305572D01*
X50001Y277900D02*
X62599D01*
X56300Y271601D02*
Y284199D01*
X368701Y39000D02*
X381299D01*
X375000Y32701D02*
Y45299D01*
X308701Y16200D02*
X321299D01*
X315000Y9901D02*
Y22499D01*
X89501Y152900D02*
X102099D01*
X95800Y146601D02*
Y159199D01*
X339128Y110900D02*
X342672D01*
X340900Y109128D02*
Y112672D01*
X339128Y100900D02*
X342672D01*
X340900Y99128D02*
Y102672D01*
X369128Y110900D02*
X372672D01*
X370900Y109128D02*
Y112672D01*
X369128Y100900D02*
X372672D01*
X370900Y99128D02*
Y102672D01*
X369128Y120900D02*
X372672D01*
X370900Y119128D02*
Y122672D01*
X339128Y120900D02*
X342672D01*
X340900Y119128D02*
Y122672D01*
X323375Y318102D02*
X327312D01*
X325343Y316133D02*
Y320070D01*
X323375Y335818D02*
X327312D01*
X325343Y333850D02*
Y337787D01*
X296603Y335818D02*
X300540D01*
X298572Y333850D02*
Y337787D01*
X296603Y318102D02*
X300540D01*
X298572Y316133D02*
Y320070D01*
X369831Y318002D02*
X373768D01*
X371800Y316033D02*
Y319970D01*
X369831Y335718D02*
X373768D01*
X371800Y333750D02*
Y337687D01*
X343060Y335718D02*
X346997D01*
X345028Y333750D02*
Y337687D01*
X343060Y318002D02*
X346997D01*
X345028Y316033D02*
Y319970D01*
X38928Y171404D02*
X42472D01*
X40700Y169632D02*
Y173176D01*
X38928Y155656D02*
X42472D01*
X40700Y153884D02*
Y157428D01*
X38928Y139908D02*
X42472D01*
X40700Y138136D02*
Y141680D01*
X38928Y124160D02*
X42472D01*
X40700Y122388D02*
Y125932D01*
X38928Y108412D02*
X42472D01*
X40700Y106640D02*
Y110184D01*
X38928Y187152D02*
X42472D01*
X40700Y185380D02*
Y188924D01*
X38928Y202900D02*
X42472D01*
X40700Y201128D02*
Y204672D01*
X38928Y234459D02*
X42472D01*
X40700Y232687D02*
Y236231D01*
X38928Y218711D02*
X42472D01*
X40700Y216939D02*
Y220483D01*
X296603Y280557D02*
X300540D01*
X298572Y278588D02*
Y282525D01*
X296603Y298273D02*
X300540D01*
X298572Y296305D02*
Y300242D01*
X323375Y298273D02*
X327312D01*
X325343Y296305D02*
Y300242D01*
X323375Y280557D02*
X327312D01*
X325343Y278588D02*
Y282525D01*
X343060Y280600D02*
X346997D01*
X345028Y278631D02*
Y282569D01*
X343060Y298317D02*
X346997D01*
X345028Y296348D02*
Y300285D01*
X369831Y298317D02*
X373768D01*
X371800Y296348D02*
Y300285D01*
X369831Y280600D02*
X373768D01*
X371800Y278631D02*
Y282569D01*
X23250Y353300D02*
X29550D01*
X26400Y350150D02*
Y356450D01*
X23250Y373300D02*
X29550D01*
X26400Y370150D02*
Y376450D01*
X63028Y373200D02*
X66572D01*
X64800Y371428D02*
Y374972D01*
X63028Y359420D02*
X66572D01*
X64800Y357649D02*
Y361192D01*
X44641Y41000D02*
X47791D01*
X46216Y39425D02*
Y42575D01*
X44641Y48874D02*
X47791D01*
X46216Y47299D02*
Y50449D01*
X44641Y56748D02*
X47791D01*
X46216Y55173D02*
Y58323D01*
X44641Y33126D02*
X47791D01*
X46216Y31551D02*
Y34701D01*
X44641Y25252D02*
X47791D01*
X46216Y23677D02*
Y26827D01*
X36767Y41000D02*
X39917D01*
X38342Y39425D02*
Y42575D01*
X36767Y48874D02*
X39917D01*
X38342Y47299D02*
Y50449D01*
X36767Y56748D02*
X39917D01*
X38342Y55173D02*
Y58323D01*
X36767Y33126D02*
X39917D01*
X38342Y31551D02*
Y34701D01*
X36767Y25252D02*
X39917D01*
X38342Y23677D02*
Y26827D01*
X28893Y25252D02*
X32043D01*
X30468Y23677D02*
Y26827D01*
X28893Y33126D02*
X32043D01*
X30468Y31551D02*
Y34701D01*
X28893Y41000D02*
X32043D01*
X30468Y39425D02*
Y42575D01*
X28893Y48874D02*
X32043D01*
X30468Y47299D02*
Y50449D01*
X28893Y56748D02*
X32043D01*
X30468Y55173D02*
Y58323D01*
X21019Y41000D02*
X24169D01*
X22594Y39425D02*
Y42575D01*
X21019Y33126D02*
X24169D01*
X22594Y31551D02*
Y34701D01*
X21019Y25252D02*
X24169D01*
X22594Y23677D02*
Y26827D01*
X21019Y48874D02*
X24169D01*
X22594Y47299D02*
Y50449D01*
X21019Y56748D02*
X24169D01*
X22594Y55173D02*
Y58323D01*
X97174Y22400D02*
X100323D01*
X98749Y20825D02*
Y23975D01*
X89300Y22400D02*
X92449D01*
X90875Y20825D02*
Y23975D01*
X323050Y364500D02*
X329350D01*
X326200Y361350D02*
Y367650D01*
X303050Y364500D02*
X309350D01*
X306200Y361350D02*
Y367650D01*
X83592Y198600D02*
X87608D01*
X85600Y196592D02*
Y200608D01*
X93592Y198600D02*
X97608D01*
X95600Y196592D02*
Y200608D01*
X83592Y208600D02*
X87608D01*
X85600Y206592D02*
Y210608D01*
X93592Y208600D02*
X97608D01*
X95600Y206592D02*
Y210608D01*
X93592Y218600D02*
X97608D01*
X95600Y216592D02*
Y220608D01*
X93592Y228600D02*
X97608D01*
X95600Y226592D02*
Y230608D01*
X93592Y238600D02*
X97608D01*
X95600Y236592D02*
Y240608D01*
X93592Y248600D02*
X97608D01*
X95600Y246592D02*
Y250608D01*
X93592Y258600D02*
X97608D01*
X95600Y256592D02*
Y260608D01*
X93592Y268600D02*
X97608D01*
X95600Y266592D02*
Y270608D01*
X93592Y278600D02*
X97608D01*
X95600Y276592D02*
Y280608D01*
X93592Y288600D02*
X97608D01*
X95600Y286592D02*
Y290608D01*
X83592Y218600D02*
X87608D01*
X85600Y216592D02*
Y220608D01*
X83592Y228600D02*
X87608D01*
X85600Y226592D02*
Y230608D01*
X83592Y238600D02*
X87608D01*
X85600Y236592D02*
Y240608D01*
X83592Y248600D02*
X87608D01*
X85600Y246592D02*
Y250608D01*
X83592Y258600D02*
X87608D01*
X85600Y256592D02*
Y260608D01*
X83592Y268600D02*
X87608D01*
X85600Y266592D02*
Y270608D01*
X83592Y278600D02*
X87608D01*
X85600Y276592D02*
Y280608D01*
X83592Y288600D02*
X87608D01*
X85600Y286592D02*
Y290608D01*
X131828Y194567D02*
X135372D01*
X133600Y192795D02*
Y196339D01*
X121828Y194567D02*
X125372D01*
X123600Y192795D02*
Y196339D01*
X131828Y204567D02*
X135372D01*
X133600Y202795D02*
Y206339D01*
X121828Y204567D02*
X125372D01*
X123600Y202795D02*
Y206339D01*
X131828Y214567D02*
X135372D01*
X133600Y212795D02*
Y216339D01*
X121828Y214567D02*
X125372D01*
X123600Y212795D02*
Y216339D01*
X197028Y258600D02*
X200572D01*
X198800Y256828D02*
Y260372D01*
X197028Y268600D02*
X200572D01*
X198800Y266828D02*
Y270372D01*
X207028Y258600D02*
X210572D01*
X208800Y256828D02*
Y260372D01*
X207028Y268600D02*
X210572D01*
X208800Y266828D02*
Y270372D01*
X217028Y258600D02*
X220572D01*
X218800Y256828D02*
Y260372D01*
X217028Y268600D02*
X220572D01*
X218800Y266828D02*
Y270372D01*
X227028Y258600D02*
X230572D01*
X228800Y256828D02*
Y260372D01*
X227028Y268600D02*
X230572D01*
X228800Y266828D02*
Y270372D01*
X237028Y258600D02*
X240572D01*
X238800Y256828D02*
Y260372D01*
X237028Y268600D02*
X240572D01*
X238800Y266828D02*
Y270372D01*
X269728Y232700D02*
X273272D01*
X271500Y230928D02*
Y234472D01*
X269728Y172700D02*
X273272D01*
X271500Y170928D02*
Y174472D01*
X269728Y182700D02*
X273272D01*
X271500Y180928D02*
Y184472D01*
X269728Y192700D02*
X273272D01*
X271500Y190928D02*
Y194472D01*
X269728Y202700D02*
X273272D01*
X271500Y200928D02*
Y204472D01*
X269728Y212700D02*
X273272D01*
X271500Y210928D02*
Y214472D01*
X269728Y222700D02*
X273272D01*
X271500Y220928D02*
Y224472D01*
X248925Y322600D02*
X252075D01*
X250500Y321025D02*
Y324175D01*
X258768Y322600D02*
X261917D01*
X260343Y321025D02*
Y324175D01*
X107123Y252200D02*
X108723D01*
X107923Y251400D02*
Y253000D01*
X240900Y162600D02*
X241900D01*
X241400Y162100D02*
Y163100D01*
X244000Y156000D02*
X245600D01*
X244800Y155200D02*
Y156800D01*
X67100Y198600D02*
X68700D01*
X67900Y197800D02*
Y199400D01*
X270700Y267600D02*
X272300D01*
X271500Y266800D02*
Y268400D01*
X243700Y94300D02*
X245300D01*
X244500Y93500D02*
Y95100D01*
X363600Y190500D02*
X365200D01*
X364400Y189700D02*
Y191300D01*
X357167Y238833D02*
X358767D01*
X357967Y238033D02*
Y239633D01*
X305000Y72600D02*
X306600D01*
X305800Y71800D02*
Y73400D01*
X290000Y238500D02*
X291600D01*
X290800Y237700D02*
Y239300D01*
X290000Y258300D02*
X291600D01*
X290800Y257500D02*
Y259100D01*
X354000Y269100D02*
X355600D01*
X354800Y268300D02*
Y269900D01*
X349600Y265600D02*
X351200D01*
X350400Y264800D02*
Y266400D01*
X257500Y285900D02*
X259100D01*
X258300Y285100D02*
Y286700D01*
X220900Y342400D02*
X222500D01*
X221700Y341600D02*
Y343200D01*
X351801Y355801D02*
X353401D01*
X352601Y355001D02*
Y356601D01*
X319300Y93600D02*
X320900D01*
X320100Y92800D02*
Y94400D01*
X223000Y130100D02*
X224600D01*
X223800Y129300D02*
Y130900D01*
X217100Y124200D02*
X218700D01*
X217900Y123400D02*
Y125000D01*
X263800Y133700D02*
X265400D01*
X264600Y132900D02*
Y134500D01*
X83000Y178600D02*
X84000D01*
X83500Y178100D02*
Y179100D01*
X142700Y136500D02*
X144300D01*
X143500Y135700D02*
Y137300D01*
X152100Y136500D02*
X153700D01*
X152900Y135700D02*
Y137300D01*
X209400Y125600D02*
X211000D01*
X210200Y124800D02*
Y126400D01*
X218601Y105501D02*
X220201D01*
X219401Y104701D02*
Y106301D01*
X196199Y120901D02*
X197799D01*
X196999Y120101D02*
Y121701D01*
X177799Y120901D02*
X179399D01*
X178599Y120101D02*
Y121701D01*
X281600Y152400D02*
X283200D01*
X282400Y151600D02*
Y153200D01*
X268500Y65700D02*
X270100D01*
X269300Y64900D02*
Y66500D01*
X280199Y84501D02*
X281799D01*
X280999Y83701D02*
Y85301D01*
X371099Y355801D02*
X372099D01*
X371599Y355301D02*
Y356301D01*
X276701Y46301D02*
X277701D01*
X277201Y45801D02*
Y46801D01*
X111900Y258400D02*
X113500D01*
X112700Y257600D02*
Y259200D01*
X106200Y198500D02*
X107800D01*
X107000Y197700D02*
Y199300D01*
X140500Y260000D02*
X141500D01*
X141000Y259500D02*
Y260500D01*
X210500Y37300D02*
X212100D01*
X211300Y36500D02*
Y38100D01*
X151100Y88300D02*
X152700D01*
X151900Y87500D02*
Y89100D01*
X141700Y88300D02*
X143300D01*
X142500Y87500D02*
Y89100D01*
X83386Y54386D02*
X84986D01*
X84186Y53586D02*
Y55186D01*
X99050Y49350D02*
X100650D01*
X99850Y48550D02*
Y50150D01*
X75700Y34600D02*
X77300D01*
X76500Y33800D02*
Y35400D01*
X66000Y27600D02*
X67600D01*
X66800Y26800D02*
Y28400D01*
X75800Y27600D02*
X77400D01*
X76600Y26800D02*
Y28400D01*
X66300Y34500D02*
X67900D01*
X67100Y33700D02*
Y35300D01*
X227100Y338200D02*
X228100D01*
X227600Y337700D02*
Y338700D01*
X379800Y364200D02*
X381400D01*
X380600Y363400D02*
Y365000D01*
X376600Y268900D02*
X378200D01*
X377400Y268100D02*
Y269700D01*
X160600Y372900D02*
X162200D01*
X161400Y372100D02*
Y373700D01*
X80500Y375100D02*
X82100D01*
X81300Y374300D02*
Y375900D01*
X74400Y369300D02*
X76000D01*
X75200Y368500D02*
Y370100D01*
X74400Y381100D02*
X76000D01*
X75200Y380300D02*
Y381900D01*
X282150Y363600D02*
X283750D01*
X282950Y362800D02*
Y364400D01*
X241400Y360900D02*
X243000D01*
X242200Y360100D02*
Y361700D01*
X241400Y368400D02*
X243000D01*
X242200Y367600D02*
Y369200D01*
X241400Y354200D02*
X243000D01*
X242200Y353400D02*
Y355000D01*
X236600Y354200D02*
X238200D01*
X237400Y353400D02*
Y355000D01*
X236600Y361000D02*
X238200D01*
X237400Y360200D02*
Y361800D01*
X236600Y368400D02*
X238200D01*
X237400Y367600D02*
Y369200D01*
X206800Y362800D02*
X208400D01*
X207600Y362000D02*
Y363600D01*
X211800Y355200D02*
X213400D01*
X212600Y354400D02*
Y356000D01*
X128900Y338200D02*
X129900D01*
X129400Y337700D02*
Y338700D01*
X139900Y108412D02*
X140900D01*
X140400Y107912D02*
Y108912D01*
X245800Y50100D02*
X246800D01*
X246300Y49600D02*
Y50600D01*
X242000Y276300D02*
X243000D01*
X242500Y275800D02*
Y276800D01*
X240800Y97300D02*
X241800D01*
X241300Y96800D02*
Y97800D01*
X165300Y116600D02*
X166300D01*
X165800Y116100D02*
Y117100D01*
X152500Y115300D02*
X153300D01*
X152900Y114900D02*
Y115700D01*
X142800Y115300D02*
X143600D01*
X143200Y114900D02*
Y115700D01*
X144100Y166100D02*
X145100D01*
X144600Y165600D02*
Y166600D01*
X182571Y173000D02*
X183572D01*
X183071Y172500D02*
Y173500D01*
X148300Y199500D02*
X149300D01*
X148800Y199000D02*
Y200000D01*
X112900Y176000D02*
X113900D01*
X113400Y175500D02*
Y176500D01*
X228400Y45300D02*
X229400D01*
X228900Y44800D02*
Y45800D01*
X257000Y54900D02*
X258000D01*
X257500Y54400D02*
Y55400D01*
X280600Y94801D02*
X281600D01*
X281100Y94301D02*
Y95301D01*
X280600Y105199D02*
X281600D01*
X281100Y104699D02*
Y105699D01*
X280600Y115596D02*
X281600D01*
X281100Y115096D02*
Y116096D01*
X280600Y125994D02*
X281600D01*
X281100Y125494D02*
Y126494D01*
X358001Y289601D02*
X359001D01*
X358501Y289101D02*
Y290101D01*
X190500Y186300D02*
X191500D01*
X191000Y185800D02*
Y186800D01*
X190500Y177100D02*
X191500D01*
X191000Y176600D02*
Y177600D01*
X213500Y159200D02*
X214500D01*
X214000Y158700D02*
Y159700D01*
X210100Y160800D02*
X211100D01*
X210600Y160300D02*
Y161300D01*
X216000Y216500D02*
X217000D01*
X216500Y216000D02*
Y217000D01*
X207200Y216500D02*
X208200D01*
X207700Y216000D02*
Y217000D01*
X176800Y207400D02*
X177800D01*
X177300Y206900D02*
Y207900D01*
X176666Y216535D02*
X177666D01*
X177166Y216035D02*
Y217035D01*
X216704Y186300D02*
X217704D01*
X217204Y185800D02*
Y186800D01*
X208100Y186300D02*
X209100D01*
X208600Y185800D02*
Y186800D01*
X216800Y177200D02*
X217800D01*
X217300Y176700D02*
Y177700D01*
X176800Y186200D02*
X177800D01*
X177300Y185700D02*
Y186700D01*
X176800Y177300D02*
X177800D01*
X177300Y176800D02*
Y177800D01*
X81900Y64400D02*
X82900D01*
X82400Y63900D02*
Y64900D01*
X80100Y62200D02*
X81100D01*
X80600Y61700D02*
Y62700D01*
X78400Y59800D02*
X79400D01*
X78900Y59300D02*
Y60300D01*
X121500Y73900D02*
X122500D01*
X122000Y73400D02*
Y74400D01*
X241100Y209500D02*
X242100D01*
X241600Y209000D02*
Y210000D01*
X242600Y212600D02*
X243600D01*
X243100Y212100D02*
Y213100D01*
X239766Y215700D02*
X240766D01*
X240266Y215200D02*
Y216200D01*
M02*
