G04*
G04 #@! TF.GenerationSoftware,Altium Limited,Altium Designer,19.0.4 (130)*
G04*
G04 Layer_Color=16711935*
%FSLAX25Y25*%
%MOIN*%
G70*
G01*
G75*
%ADD42R,0.06800X0.05800*%
%ADD43R,0.05800X0.05800*%
%ADD44R,0.05800X0.05800*%
%ADD57R,0.40170X0.43320*%
%ADD58R,0.08700X0.06700*%
%ADD59R,0.08700X0.15800*%
%ADD61C,0.07493*%
%ADD62R,0.07493X0.07493*%
%ADD63O,0.10642X0.14580*%
%ADD64R,0.07493X0.07493*%
%ADD65R,0.08280X0.08280*%
%ADD66C,0.08280*%
%ADD67C,0.07099*%
%ADD68R,0.07099X0.07099*%
%ADD69R,0.07099X0.07099*%
%ADD70C,0.00800*%
%ADD71R,0.10642X0.10642*%
%ADD72C,0.10642*%
%ADD73C,0.07887*%
%ADD74R,0.07887X0.07887*%
%ADD75C,0.06706*%
%ADD76R,0.06706X0.06706*%
%ADD77R,0.10642X0.10642*%
%ADD100R,0.07887X0.07493*%
%ADD101R,0.07800X0.10800*%
D42*
X280100Y247700D02*
D03*
X271100D02*
D03*
D43*
X361400Y100800D02*
D03*
X352399Y100801D02*
D03*
X361400Y110700D02*
D03*
X352399Y110701D02*
D03*
X361400Y120600D02*
D03*
X352399Y120601D02*
D03*
X320100Y100900D02*
D03*
X329101Y100899D02*
D03*
X320100Y110800D02*
D03*
X329101Y110799D02*
D03*
X320100Y120700D02*
D03*
X329101Y120699D02*
D03*
X281100Y125994D02*
D03*
X290101Y125994D02*
D03*
X281100Y115596D02*
D03*
X290101Y115596D02*
D03*
X281100Y105199D02*
D03*
X290101Y105198D02*
D03*
X280999Y84501D02*
D03*
X290000Y84500D02*
D03*
X281100Y94801D02*
D03*
X290101Y94800D02*
D03*
X103700Y208600D02*
D03*
X112701Y208599D02*
D03*
X103700Y218700D02*
D03*
X112701Y218699D02*
D03*
X103700Y228600D02*
D03*
X112701Y228599D02*
D03*
Y238599D02*
D03*
X103700Y238600D02*
D03*
Y258600D02*
D03*
X112701Y258599D02*
D03*
X144600Y159400D02*
D03*
X153601Y159399D02*
D03*
Y150199D02*
D03*
X144600Y150200D02*
D03*
X207400Y370600D02*
D03*
X198399Y370601D02*
D03*
X207300Y379400D02*
D03*
X198299Y379401D02*
D03*
X380600Y355800D02*
D03*
X371599Y355801D02*
D03*
X214000Y153500D02*
D03*
X204999Y153501D02*
D03*
X207599Y216501D02*
D03*
X216600Y216500D02*
D03*
D44*
X290100Y57900D02*
D03*
X290101Y66901D02*
D03*
X278900D02*
D03*
X278899Y57900D02*
D03*
X277200Y37300D02*
D03*
X277201Y46301D02*
D03*
X114499Y40399D02*
D03*
X114500Y49400D02*
D03*
X177299Y207299D02*
D03*
X177300Y216300D02*
D03*
X177301Y186401D02*
D03*
X177300Y177400D02*
D03*
X191001Y186401D02*
D03*
X191000Y177400D02*
D03*
X217301Y186401D02*
D03*
X217300Y177400D02*
D03*
X208601Y186401D02*
D03*
X208600Y177400D02*
D03*
X290900Y247700D02*
D03*
X290899Y238699D02*
D03*
X358501Y289601D02*
D03*
X358500Y280600D02*
D03*
X312001Y326901D02*
D03*
X312000Y317900D02*
D03*
X358601Y326901D02*
D03*
X358600Y317900D02*
D03*
X312101Y289701D02*
D03*
X312100Y280700D02*
D03*
D57*
X32436Y41000D02*
D03*
D58*
X302200Y247900D02*
D03*
Y238845D02*
D03*
Y256955D02*
D03*
D59*
X327554Y247833D02*
D03*
D61*
X86600Y335300D02*
D03*
X251900Y81900D02*
D03*
X241900D02*
D03*
X191900D02*
D03*
X201900D02*
D03*
X211900D02*
D03*
X221900D02*
D03*
X231900D02*
D03*
X219800Y71800D02*
D03*
X229800D02*
D03*
X239800D02*
D03*
X89900Y97600D02*
D03*
X99900D02*
D03*
X131600Y303800D02*
D03*
X141600D02*
D03*
X151600D02*
D03*
X161600D02*
D03*
X171600D02*
D03*
X340900Y110900D02*
D03*
Y100900D02*
D03*
X370900Y110900D02*
D03*
Y120900D02*
D03*
X340900D02*
D03*
X40700Y171404D02*
D03*
Y155656D02*
D03*
Y139908D02*
D03*
Y124160D02*
D03*
Y108412D02*
D03*
Y187152D02*
D03*
Y202900D02*
D03*
Y234459D02*
D03*
Y218711D02*
D03*
X271500Y232700D02*
D03*
Y182700D02*
D03*
Y192700D02*
D03*
Y202700D02*
D03*
Y212700D02*
D03*
Y222700D02*
D03*
D62*
X86600Y325300D02*
D03*
X271500Y172700D02*
D03*
D63*
X19096Y322600D02*
D03*
X37600D02*
D03*
X56104D02*
D03*
D64*
X181900Y81900D02*
D03*
X249800Y71800D02*
D03*
X109900Y97600D02*
D03*
X181600Y303800D02*
D03*
X370900Y100900D02*
D03*
D65*
X270746Y75658D02*
D03*
X325343Y318102D02*
D03*
X371800Y318002D02*
D03*
X325343Y280557D02*
D03*
X371800Y280600D02*
D03*
D66*
X270746Y57942D02*
D03*
X297518D02*
D03*
Y75658D02*
D03*
X325343Y335818D02*
D03*
X298572D02*
D03*
Y318102D02*
D03*
X371800Y335718D02*
D03*
X345028D02*
D03*
Y318002D02*
D03*
X298572Y280557D02*
D03*
Y298273D02*
D03*
X325343D02*
D03*
X345028Y280600D02*
D03*
Y298317D02*
D03*
X371800D02*
D03*
D67*
X352500Y79700D02*
D03*
X362500D02*
D03*
X352500Y69700D02*
D03*
X362500D02*
D03*
X352500Y59700D02*
D03*
X201600Y50100D02*
D03*
Y40100D02*
D03*
X181600D02*
D03*
Y50100D02*
D03*
X171600D02*
D03*
Y40100D02*
D03*
X161600Y50100D02*
D03*
Y40100D02*
D03*
X151600Y50100D02*
D03*
Y40100D02*
D03*
X141600Y50100D02*
D03*
Y40100D02*
D03*
X131600Y50100D02*
D03*
Y40100D02*
D03*
X121600Y50100D02*
D03*
X191600Y40100D02*
D03*
Y50100D02*
D03*
X111400Y358500D02*
D03*
X101400D02*
D03*
X111400Y368500D02*
D03*
X101400D02*
D03*
X111400Y378500D02*
D03*
X85600Y198600D02*
D03*
Y208600D02*
D03*
X95600D02*
D03*
Y218600D02*
D03*
Y228600D02*
D03*
Y238600D02*
D03*
Y248600D02*
D03*
Y258600D02*
D03*
Y268600D02*
D03*
Y278600D02*
D03*
Y288600D02*
D03*
X85600Y218600D02*
D03*
Y228600D02*
D03*
Y238600D02*
D03*
Y248600D02*
D03*
Y258600D02*
D03*
Y268600D02*
D03*
Y278600D02*
D03*
Y288600D02*
D03*
X123600Y194567D02*
D03*
X133600Y204567D02*
D03*
X123600D02*
D03*
X133600Y214567D02*
D03*
X123600D02*
D03*
X198800Y268600D02*
D03*
X208800Y258600D02*
D03*
Y268600D02*
D03*
X218800Y258600D02*
D03*
Y268600D02*
D03*
X228800Y258600D02*
D03*
Y268600D02*
D03*
X238800Y258600D02*
D03*
Y268600D02*
D03*
X260343Y322600D02*
D03*
D68*
X362500Y59700D02*
D03*
X101400Y378500D02*
D03*
X95600Y198600D02*
D03*
X133600Y194567D02*
D03*
D69*
X121600Y40100D02*
D03*
X198800Y258600D02*
D03*
X250500Y322600D02*
D03*
D70*
X56300Y277900D02*
D03*
X375000Y39000D02*
D03*
X315000Y16200D02*
D03*
X95800Y152900D02*
D03*
D71*
X26400Y353300D02*
D03*
D72*
Y373300D02*
D03*
X306200Y364500D02*
D03*
D73*
X64800Y373200D02*
D03*
D74*
Y359420D02*
D03*
D75*
X46216Y41000D02*
D03*
Y48874D02*
D03*
Y56748D02*
D03*
Y33126D02*
D03*
Y25252D02*
D03*
X38342Y41000D02*
D03*
Y48874D02*
D03*
Y56748D02*
D03*
Y33126D02*
D03*
Y25252D02*
D03*
X30468D02*
D03*
Y33126D02*
D03*
Y41000D02*
D03*
Y48874D02*
D03*
Y56748D02*
D03*
X22594Y41000D02*
D03*
Y33126D02*
D03*
Y25252D02*
D03*
Y48874D02*
D03*
Y56748D02*
D03*
X90875Y22400D02*
D03*
D76*
X98749D02*
D03*
D77*
X326200Y364500D02*
D03*
D100*
X258300Y263600D02*
D03*
Y247800D02*
D03*
D101*
X231400Y237300D02*
D03*
X216400Y237300D02*
D03*
M02*
