G04*
G04 #@! TF.GenerationSoftware,Altium Limited,Altium Designer,19.0.4 (130)*
G04*
G04 Layer_Color=8388736*
%FSLAX25Y25*%
%MOIN*%
G70*
G01*
G75*
G04:AMPARAMS|DCode=41|XSize=68mil|YSize=58mil|CornerRadius=0mil|HoleSize=0mil|Usage=FLASHONLY|Rotation=0.000|XOffset=0mil|YOffset=0mil|HoleType=Round|Shape=Octagon|*
%AMOCTAGOND41*
4,1,8,0.03400,-0.01450,0.03400,0.01450,0.01950,0.02900,-0.01950,0.02900,-0.03400,0.01450,-0.03400,-0.01450,-0.01950,-0.02900,0.01950,-0.02900,0.03400,-0.01450,0.0*
%
%ADD41OCTAGOND41*%

%ADD42R,0.06800X0.05800*%
%ADD43R,0.05800X0.05800*%
%ADD44R,0.05800X0.05800*%
%ADD45R,0.06300X0.04800*%
%ADD46O,0.03200X0.09600*%
%ADD47R,0.06800X0.07099*%
%ADD48O,0.09461X0.03556*%
%ADD49R,0.09461X0.03556*%
%ADD50R,0.04800X0.03800*%
%ADD51R,0.06312X0.05524*%
%ADD52R,0.01981X0.04737*%
%ADD53O,0.07887X0.01981*%
%ADD54O,0.01981X0.07887*%
%ADD55R,0.03753X0.03162*%
%ADD56R,0.14580X0.04737*%
%ADD57R,0.40170X0.43320*%
%ADD58R,0.08700X0.06700*%
%ADD59R,0.08700X0.15800*%
%ADD60O,0.08800X0.03200*%
%ADD61C,0.07493*%
%ADD62R,0.07493X0.07493*%
%ADD63O,0.10642X0.14580*%
%ADD64R,0.07493X0.07493*%
%ADD65R,0.08280X0.08280*%
%ADD66C,0.08280*%
%ADD67C,0.07099*%
%ADD68R,0.07099X0.07099*%
%ADD69R,0.07099X0.07099*%
%ADD70C,0.00800*%
%ADD71R,0.10642X0.10642*%
%ADD72C,0.10642*%
%ADD73C,0.07887*%
%ADD74R,0.07887X0.07887*%
%ADD75C,0.06706*%
%ADD76R,0.06706X0.06706*%
%ADD77R,0.10642X0.10642*%
D41*
X280800Y84800D02*
D03*
X281006Y94700D02*
D03*
Y105098D02*
D03*
Y115496D02*
D03*
Y125894D02*
D03*
X277201Y46301D02*
D03*
X371599Y355801D02*
D03*
X99850Y125600D02*
D03*
D42*
X270800Y84800D02*
D03*
X271006Y94700D02*
D03*
Y105098D02*
D03*
Y115496D02*
D03*
Y125894D02*
D03*
X287201Y46301D02*
D03*
X361599Y355801D02*
D03*
X89850Y125600D02*
D03*
D43*
X99801Y40801D02*
D03*
X90800Y40800D02*
D03*
X129302Y338300D02*
D03*
X138303Y338301D02*
D03*
X129202Y369747D02*
D03*
X138203Y369748D02*
D03*
X364301Y205301D02*
D03*
X355300Y205300D02*
D03*
X364301Y190501D02*
D03*
X355300Y190500D02*
D03*
X378900Y180800D02*
D03*
X369899Y180799D02*
D03*
X289500Y193700D02*
D03*
X298501Y193701D02*
D03*
X210400Y105500D02*
D03*
X219401Y105501D02*
D03*
X214600Y136800D02*
D03*
X205599Y136799D02*
D03*
X196900Y98000D02*
D03*
X187899Y97999D02*
D03*
D44*
X99899Y58401D02*
D03*
X99900Y49400D02*
D03*
X184398Y347601D02*
D03*
X184398Y338600D02*
D03*
X184399Y378848D02*
D03*
X184400Y369848D02*
D03*
X88800Y373100D02*
D03*
X88801Y364099D02*
D03*
X100099Y116844D02*
D03*
X100100Y107844D02*
D03*
X285299Y181701D02*
D03*
X285300Y172700D02*
D03*
X318399Y55401D02*
D03*
X318400Y46400D02*
D03*
X178600Y111900D02*
D03*
X178599Y120901D02*
D03*
X228500Y120800D02*
D03*
X228501Y111799D02*
D03*
X197000Y111900D02*
D03*
X196999Y120901D02*
D03*
D45*
X99950Y77000D02*
D03*
Y68000D02*
D03*
D46*
X365300Y251900D02*
D03*
X360300D02*
D03*
X355300D02*
D03*
X350300D02*
D03*
Y219900D02*
D03*
X355300D02*
D03*
X360300D02*
D03*
X365300D02*
D03*
D47*
X282950Y363600D02*
D03*
X269449Y363599D02*
D03*
D48*
X173798Y359979D02*
D03*
Y369821D02*
D03*
X148602Y359979D02*
D03*
X173998Y328279D02*
D03*
Y338121D02*
D03*
X148802Y328279D02*
D03*
D49*
X148602Y369821D02*
D03*
X148802Y338121D02*
D03*
D50*
X243200Y341200D02*
D03*
X250500D02*
D03*
D51*
X242100Y229000D02*
D03*
Y242386D02*
D03*
X177200Y258593D02*
D03*
Y245207D02*
D03*
D52*
X189381Y138886D02*
D03*
X187019D02*
D03*
X189381Y111918D02*
D03*
X187018D02*
D03*
D53*
X167027Y173228D02*
D03*
Y175197D02*
D03*
Y177165D02*
D03*
Y179134D02*
D03*
Y181102D02*
D03*
Y183071D02*
D03*
Y185039D02*
D03*
Y187008D02*
D03*
Y188976D02*
D03*
Y190945D02*
D03*
Y192913D02*
D03*
Y194882D02*
D03*
Y196850D02*
D03*
Y198819D02*
D03*
Y200787D02*
D03*
Y202756D02*
D03*
Y204724D02*
D03*
Y206693D02*
D03*
Y208661D02*
D03*
Y210630D02*
D03*
Y212598D02*
D03*
Y214567D02*
D03*
Y216535D02*
D03*
Y218504D02*
D03*
Y220472D02*
D03*
X226675D02*
D03*
Y218504D02*
D03*
Y216535D02*
D03*
Y214567D02*
D03*
Y212598D02*
D03*
Y210630D02*
D03*
Y208661D02*
D03*
Y206693D02*
D03*
Y204724D02*
D03*
Y202756D02*
D03*
Y200787D02*
D03*
Y198819D02*
D03*
Y196850D02*
D03*
Y194882D02*
D03*
Y192913D02*
D03*
Y190945D02*
D03*
Y188976D02*
D03*
Y187008D02*
D03*
Y185039D02*
D03*
Y183071D02*
D03*
Y181102D02*
D03*
Y179134D02*
D03*
Y177165D02*
D03*
Y175197D02*
D03*
Y173228D02*
D03*
D54*
X173229Y226675D02*
D03*
X175198D02*
D03*
X177166D02*
D03*
X179135D02*
D03*
X181103D02*
D03*
X183071D02*
D03*
X185040D02*
D03*
X187009D02*
D03*
X188977D02*
D03*
X190945D02*
D03*
X192914D02*
D03*
X194883D02*
D03*
X196851D02*
D03*
X198819D02*
D03*
X200788D02*
D03*
X202757D02*
D03*
X204725D02*
D03*
X206694D02*
D03*
X208662D02*
D03*
X210631D02*
D03*
X212599D02*
D03*
X214568D02*
D03*
X216536D02*
D03*
X218505D02*
D03*
X220473D02*
D03*
Y167026D02*
D03*
X218505D02*
D03*
X216536D02*
D03*
X214568D02*
D03*
X212599D02*
D03*
X210631D02*
D03*
X208662D02*
D03*
X206694D02*
D03*
X204725D02*
D03*
X202757D02*
D03*
X200788D02*
D03*
X198819D02*
D03*
X196851D02*
D03*
X194883D02*
D03*
X192914D02*
D03*
X190945D02*
D03*
X188977D02*
D03*
X187009D02*
D03*
X185040D02*
D03*
X183071D02*
D03*
X181103D02*
D03*
X179135D02*
D03*
X177166D02*
D03*
X175198D02*
D03*
X173229D02*
D03*
D55*
X210434Y117850D02*
D03*
X214568D02*
D03*
Y121000D02*
D03*
X210434D02*
D03*
D56*
X71806Y54386D02*
D03*
Y34307D02*
D03*
Y47693D02*
D03*
Y27614D02*
D03*
Y41000D02*
D03*
D57*
X32436D02*
D03*
D58*
X298900Y163645D02*
D03*
Y181755D02*
D03*
Y172700D02*
D03*
D59*
X324254Y172767D02*
D03*
D60*
X228500Y368700D02*
D03*
Y363700D02*
D03*
Y358700D02*
D03*
Y353700D02*
D03*
X250500D02*
D03*
Y358700D02*
D03*
Y363700D02*
D03*
Y368700D02*
D03*
D61*
X86600Y335300D02*
D03*
X251900Y81900D02*
D03*
X241900D02*
D03*
X191900D02*
D03*
X201900D02*
D03*
X211900D02*
D03*
X221900D02*
D03*
X231900D02*
D03*
X219800Y71800D02*
D03*
X229800D02*
D03*
X239800D02*
D03*
X89900Y97600D02*
D03*
X99900D02*
D03*
X131600Y303800D02*
D03*
X141600D02*
D03*
X151600D02*
D03*
X161600D02*
D03*
X171600D02*
D03*
X340900Y110900D02*
D03*
Y100900D02*
D03*
X370900Y110900D02*
D03*
Y120900D02*
D03*
X340900D02*
D03*
X40700Y171404D02*
D03*
Y155656D02*
D03*
Y139908D02*
D03*
Y124160D02*
D03*
Y108412D02*
D03*
Y187152D02*
D03*
Y202900D02*
D03*
Y234459D02*
D03*
Y218711D02*
D03*
X271500Y232700D02*
D03*
Y182700D02*
D03*
Y192700D02*
D03*
Y202700D02*
D03*
Y212700D02*
D03*
Y222700D02*
D03*
D62*
X86600Y325300D02*
D03*
X271500Y172700D02*
D03*
D63*
X19096Y322600D02*
D03*
X37600D02*
D03*
X56104D02*
D03*
D64*
X181900Y81900D02*
D03*
X249800Y71800D02*
D03*
X109900Y97600D02*
D03*
X181600Y303800D02*
D03*
X370900Y100900D02*
D03*
D65*
X270746Y75658D02*
D03*
X325343Y318102D02*
D03*
X371800Y318002D02*
D03*
X325343Y280557D02*
D03*
X371800Y280600D02*
D03*
D66*
X270746Y57942D02*
D03*
X297518D02*
D03*
Y75658D02*
D03*
X325343Y335818D02*
D03*
X298572D02*
D03*
Y318102D02*
D03*
X371800Y335718D02*
D03*
X345028D02*
D03*
Y318002D02*
D03*
X298572Y280557D02*
D03*
Y298273D02*
D03*
X325343D02*
D03*
X345028Y280600D02*
D03*
Y298317D02*
D03*
X371800D02*
D03*
D67*
X352500Y79700D02*
D03*
X362500D02*
D03*
X352500Y69700D02*
D03*
X362500D02*
D03*
X352500Y59700D02*
D03*
X201600Y50100D02*
D03*
Y40100D02*
D03*
X181600D02*
D03*
Y50100D02*
D03*
X171600D02*
D03*
Y40100D02*
D03*
X161600Y50100D02*
D03*
Y40100D02*
D03*
X151600Y50100D02*
D03*
Y40100D02*
D03*
X141600Y50100D02*
D03*
Y40100D02*
D03*
X131600Y50100D02*
D03*
Y40100D02*
D03*
X121600Y50100D02*
D03*
X191600Y40100D02*
D03*
Y50100D02*
D03*
X111400Y358500D02*
D03*
X101400D02*
D03*
X111400Y368500D02*
D03*
X101400D02*
D03*
X111400Y378500D02*
D03*
X85600Y198600D02*
D03*
Y208600D02*
D03*
X95600D02*
D03*
Y218600D02*
D03*
Y228600D02*
D03*
Y238600D02*
D03*
Y248600D02*
D03*
Y258600D02*
D03*
Y268600D02*
D03*
Y278600D02*
D03*
Y288600D02*
D03*
X85600Y218600D02*
D03*
Y228600D02*
D03*
Y238600D02*
D03*
Y248600D02*
D03*
Y258600D02*
D03*
Y268600D02*
D03*
Y278600D02*
D03*
Y288600D02*
D03*
X123600Y194567D02*
D03*
X133600Y204567D02*
D03*
X123600D02*
D03*
X133600Y214567D02*
D03*
X123600D02*
D03*
X198800Y268600D02*
D03*
X208800Y258600D02*
D03*
Y268600D02*
D03*
X218800Y258600D02*
D03*
Y268600D02*
D03*
X228800Y258600D02*
D03*
Y268600D02*
D03*
X238800Y258600D02*
D03*
Y268600D02*
D03*
X260343Y322600D02*
D03*
D68*
X362500Y59700D02*
D03*
X101400Y378500D02*
D03*
X95600Y198600D02*
D03*
X133600Y194567D02*
D03*
D69*
X121600Y40100D02*
D03*
X198800Y258600D02*
D03*
X250500Y322600D02*
D03*
D70*
X56300Y277900D02*
D03*
X375000Y39000D02*
D03*
X315000Y16200D02*
D03*
X95800Y152900D02*
D03*
D71*
X26400Y353300D02*
D03*
D72*
Y373300D02*
D03*
X306200Y364500D02*
D03*
D73*
X64800Y373200D02*
D03*
D74*
Y359420D02*
D03*
D75*
X46216Y41000D02*
D03*
Y48874D02*
D03*
Y56748D02*
D03*
Y33126D02*
D03*
Y25252D02*
D03*
X38342Y41000D02*
D03*
Y48874D02*
D03*
Y56748D02*
D03*
Y33126D02*
D03*
Y25252D02*
D03*
X30468D02*
D03*
Y33126D02*
D03*
Y41000D02*
D03*
Y48874D02*
D03*
Y56748D02*
D03*
X22594Y41000D02*
D03*
Y33126D02*
D03*
Y25252D02*
D03*
Y48874D02*
D03*
Y56748D02*
D03*
X90875Y22400D02*
D03*
D76*
X98749D02*
D03*
D77*
X326200Y364500D02*
D03*
M02*
