G04*
G04 #@! TF.GenerationSoftware,Altium Limited,Altium Designer,19.0.4 (130)*
G04*
G04 Layer_Color=255*
%FSLAX25Y25*%
%MOIN*%
G70*
G01*
G75*
G04:AMPARAMS|DCode=21|XSize=60mil|YSize=50mil|CornerRadius=0mil|HoleSize=0mil|Usage=FLASHONLY|Rotation=0.000|XOffset=0mil|YOffset=0mil|HoleType=Round|Shape=Octagon|*
%AMOCTAGOND21*
4,1,8,0.03000,-0.01250,0.03000,0.01250,0.01750,0.02500,-0.01750,0.02500,-0.03000,0.01250,-0.03000,-0.01250,-0.01750,-0.02500,0.01750,-0.02500,0.03000,-0.01250,0.0*
%
%ADD21OCTAGOND21*%

%ADD22R,0.06000X0.05000*%
%ADD23R,0.05000X0.05000*%
%ADD24R,0.05000X0.05000*%
%ADD25R,0.05500X0.04000*%
%ADD26O,0.02400X0.08800*%
%ADD27R,0.06000X0.06299*%
%ADD28O,0.08661X0.02756*%
%ADD29R,0.08661X0.02756*%
%ADD30R,0.04000X0.03000*%
%ADD31R,0.05512X0.04724*%
%ADD32R,0.01181X0.03937*%
%ADD33O,0.07087X0.01181*%
%ADD34O,0.01181X0.07087*%
%ADD35R,0.02953X0.02362*%
%ADD36R,0.13780X0.03937*%
%ADD37R,0.39370X0.42520*%
%ADD38R,0.07900X0.05900*%
%ADD39R,0.07900X0.15000*%
%ADD40O,0.08000X0.02400*%
%ADD78C,0.06693*%
%ADD79R,0.06693X0.06693*%
%ADD80O,0.09843X0.13780*%
%ADD81R,0.06693X0.06693*%
%ADD82R,0.07480X0.07480*%
%ADD83C,0.07480*%
%ADD84C,0.06299*%
%ADD85R,0.06299X0.06299*%
%ADD86R,0.06299X0.06299*%
%ADD87R,0.09843X0.09843*%
%ADD88C,0.09843*%
%ADD89C,0.07087*%
%ADD90R,0.07087X0.07087*%
%ADD91C,0.05906*%
%ADD92R,0.05906X0.05906*%
%ADD93R,0.09843X0.09843*%
D21*
X280800Y84800D02*
D03*
X281006Y94700D02*
D03*
Y105098D02*
D03*
Y115496D02*
D03*
Y125894D02*
D03*
X277201Y46301D02*
D03*
X371599Y355801D02*
D03*
X99850Y125600D02*
D03*
D22*
X270800Y84800D02*
D03*
X271006Y94700D02*
D03*
Y105098D02*
D03*
Y115496D02*
D03*
Y125894D02*
D03*
X287201Y46301D02*
D03*
X361599Y355801D02*
D03*
X89850Y125600D02*
D03*
D23*
X99801Y40801D02*
D03*
X90800Y40800D02*
D03*
X129302Y338300D02*
D03*
X138303Y338301D02*
D03*
X129202Y369747D02*
D03*
X138203Y369748D02*
D03*
X364301Y205301D02*
D03*
X355300Y205300D02*
D03*
X364301Y190501D02*
D03*
X355300Y190500D02*
D03*
X378900Y180800D02*
D03*
X369899Y180799D02*
D03*
X289500Y193700D02*
D03*
X298501Y193701D02*
D03*
X210400Y105500D02*
D03*
X219401Y105501D02*
D03*
X214600Y136800D02*
D03*
X205599Y136799D02*
D03*
X196900Y98000D02*
D03*
X187899Y97999D02*
D03*
D24*
X99899Y58401D02*
D03*
X99900Y49400D02*
D03*
X184398Y347601D02*
D03*
X184398Y338600D02*
D03*
X184399Y378848D02*
D03*
X184400Y369848D02*
D03*
X88800Y373100D02*
D03*
X88801Y364099D02*
D03*
X100099Y116844D02*
D03*
X100100Y107844D02*
D03*
X285299Y181701D02*
D03*
X285300Y172700D02*
D03*
X318399Y55401D02*
D03*
X318400Y46400D02*
D03*
X178600Y111900D02*
D03*
X178599Y120901D02*
D03*
X228500Y120800D02*
D03*
X228501Y111799D02*
D03*
X197000Y111900D02*
D03*
X196999Y120901D02*
D03*
D25*
X99950Y77000D02*
D03*
Y68000D02*
D03*
D26*
X365300Y251900D02*
D03*
X360300D02*
D03*
X355300D02*
D03*
X350300D02*
D03*
Y219900D02*
D03*
X355300D02*
D03*
X360300D02*
D03*
X365300D02*
D03*
D27*
X282950Y363600D02*
D03*
X269449Y363599D02*
D03*
D28*
X173798Y359979D02*
D03*
Y369821D02*
D03*
X148602Y359979D02*
D03*
X173998Y328279D02*
D03*
Y338121D02*
D03*
X148802Y328279D02*
D03*
D29*
X148602Y369821D02*
D03*
X148802Y338121D02*
D03*
D30*
X243200Y341200D02*
D03*
X250500D02*
D03*
D31*
X242100Y229000D02*
D03*
Y242386D02*
D03*
X177200Y258593D02*
D03*
Y245207D02*
D03*
D32*
X189381Y138886D02*
D03*
X187019D02*
D03*
X189381Y111918D02*
D03*
X187018D02*
D03*
D33*
X167027Y173228D02*
D03*
Y175197D02*
D03*
Y177165D02*
D03*
Y179134D02*
D03*
Y181102D02*
D03*
Y183071D02*
D03*
Y185039D02*
D03*
Y187008D02*
D03*
Y188976D02*
D03*
Y190945D02*
D03*
Y192913D02*
D03*
Y194882D02*
D03*
Y196850D02*
D03*
Y198819D02*
D03*
Y200787D02*
D03*
Y202756D02*
D03*
Y204724D02*
D03*
Y206693D02*
D03*
Y208661D02*
D03*
Y210630D02*
D03*
Y212598D02*
D03*
Y214567D02*
D03*
Y216535D02*
D03*
Y218504D02*
D03*
Y220472D02*
D03*
X226675D02*
D03*
Y218504D02*
D03*
Y216535D02*
D03*
Y214567D02*
D03*
Y212598D02*
D03*
Y210630D02*
D03*
Y208661D02*
D03*
Y206693D02*
D03*
Y204724D02*
D03*
Y202756D02*
D03*
Y200787D02*
D03*
Y198819D02*
D03*
Y196850D02*
D03*
Y194882D02*
D03*
Y192913D02*
D03*
Y190945D02*
D03*
Y188976D02*
D03*
Y187008D02*
D03*
Y185039D02*
D03*
Y183071D02*
D03*
Y181102D02*
D03*
Y179134D02*
D03*
Y177165D02*
D03*
Y175197D02*
D03*
Y173228D02*
D03*
D34*
X173229Y226675D02*
D03*
X175198D02*
D03*
X177166D02*
D03*
X179135D02*
D03*
X181103D02*
D03*
X183071D02*
D03*
X185040D02*
D03*
X187009D02*
D03*
X188977D02*
D03*
X190945D02*
D03*
X192914D02*
D03*
X194883D02*
D03*
X196851D02*
D03*
X198819D02*
D03*
X200788D02*
D03*
X202757D02*
D03*
X204725D02*
D03*
X206694D02*
D03*
X208662D02*
D03*
X210631D02*
D03*
X212599D02*
D03*
X214568D02*
D03*
X216536D02*
D03*
X218505D02*
D03*
X220473D02*
D03*
Y167026D02*
D03*
X218505D02*
D03*
X216536D02*
D03*
X214568D02*
D03*
X212599D02*
D03*
X210631D02*
D03*
X208662D02*
D03*
X206694D02*
D03*
X204725D02*
D03*
X202757D02*
D03*
X200788D02*
D03*
X198819D02*
D03*
X196851D02*
D03*
X194883D02*
D03*
X192914D02*
D03*
X190945D02*
D03*
X188977D02*
D03*
X187009D02*
D03*
X185040D02*
D03*
X183071D02*
D03*
X181103D02*
D03*
X179135D02*
D03*
X177166D02*
D03*
X175198D02*
D03*
X173229D02*
D03*
D35*
X210434Y117850D02*
D03*
X214568D02*
D03*
Y121000D02*
D03*
X210434D02*
D03*
D36*
X71806Y54386D02*
D03*
Y34307D02*
D03*
Y47693D02*
D03*
Y27614D02*
D03*
Y41000D02*
D03*
D37*
X32436D02*
D03*
D38*
X298900Y163645D02*
D03*
Y181755D02*
D03*
Y172700D02*
D03*
D39*
X324254Y172767D02*
D03*
D40*
X228500Y368700D02*
D03*
Y363700D02*
D03*
Y358700D02*
D03*
Y353700D02*
D03*
X250500D02*
D03*
Y358700D02*
D03*
Y363700D02*
D03*
Y368700D02*
D03*
D78*
X86600Y335300D02*
D03*
X251900Y81900D02*
D03*
X241900D02*
D03*
X191900D02*
D03*
X201900D02*
D03*
X211900D02*
D03*
X221900D02*
D03*
X231900D02*
D03*
X219800Y71800D02*
D03*
X229800D02*
D03*
X239800D02*
D03*
X89900Y97600D02*
D03*
X99900D02*
D03*
X131600Y303800D02*
D03*
X141600D02*
D03*
X151600D02*
D03*
X161600D02*
D03*
X171600D02*
D03*
X340900Y110900D02*
D03*
Y100900D02*
D03*
X370900Y110900D02*
D03*
Y120900D02*
D03*
X340900D02*
D03*
X40700Y171404D02*
D03*
Y155656D02*
D03*
Y139908D02*
D03*
Y124160D02*
D03*
Y108412D02*
D03*
Y187152D02*
D03*
Y202900D02*
D03*
Y234459D02*
D03*
Y218711D02*
D03*
X271500Y232700D02*
D03*
Y182700D02*
D03*
Y192700D02*
D03*
Y202700D02*
D03*
Y212700D02*
D03*
Y222700D02*
D03*
D79*
X86600Y325300D02*
D03*
X271500Y172700D02*
D03*
D80*
X19096Y322600D02*
D03*
X37600D02*
D03*
X56104D02*
D03*
D81*
X181900Y81900D02*
D03*
X249800Y71800D02*
D03*
X109900Y97600D02*
D03*
X181600Y303800D02*
D03*
X370900Y100900D02*
D03*
D82*
X270746Y75658D02*
D03*
X325343Y318102D02*
D03*
X371800Y318002D02*
D03*
X325343Y280557D02*
D03*
X371800Y280600D02*
D03*
D83*
X270746Y57942D02*
D03*
X297518D02*
D03*
Y75658D02*
D03*
X325343Y335818D02*
D03*
X298572D02*
D03*
Y318102D02*
D03*
X371800Y335718D02*
D03*
X345028D02*
D03*
Y318002D02*
D03*
X298572Y280557D02*
D03*
Y298273D02*
D03*
X325343D02*
D03*
X345028Y280600D02*
D03*
Y298317D02*
D03*
X371800D02*
D03*
D84*
X352500Y79700D02*
D03*
X362500D02*
D03*
X352500Y69700D02*
D03*
X362500D02*
D03*
X352500Y59700D02*
D03*
X201600Y50100D02*
D03*
Y40100D02*
D03*
X181600D02*
D03*
Y50100D02*
D03*
X171600D02*
D03*
Y40100D02*
D03*
X161600Y50100D02*
D03*
Y40100D02*
D03*
X151600Y50100D02*
D03*
Y40100D02*
D03*
X141600Y50100D02*
D03*
Y40100D02*
D03*
X131600Y50100D02*
D03*
Y40100D02*
D03*
X121600Y50100D02*
D03*
X191600Y40100D02*
D03*
Y50100D02*
D03*
X111400Y358500D02*
D03*
X101400D02*
D03*
X111400Y368500D02*
D03*
X101400D02*
D03*
X111400Y378500D02*
D03*
X85600Y198600D02*
D03*
Y208600D02*
D03*
X95600D02*
D03*
Y218600D02*
D03*
Y228600D02*
D03*
Y238600D02*
D03*
Y248600D02*
D03*
Y258600D02*
D03*
Y268600D02*
D03*
Y278600D02*
D03*
Y288600D02*
D03*
X85600Y218600D02*
D03*
Y228600D02*
D03*
Y238600D02*
D03*
Y248600D02*
D03*
Y258600D02*
D03*
Y268600D02*
D03*
Y278600D02*
D03*
Y288600D02*
D03*
X123600Y194567D02*
D03*
X133600Y204567D02*
D03*
X123600D02*
D03*
X133600Y214567D02*
D03*
X123600D02*
D03*
X198800Y268600D02*
D03*
X208800Y258600D02*
D03*
Y268600D02*
D03*
X218800Y258600D02*
D03*
Y268600D02*
D03*
X228800Y258600D02*
D03*
Y268600D02*
D03*
X238800Y258600D02*
D03*
Y268600D02*
D03*
X260343Y322600D02*
D03*
D85*
X362500Y59700D02*
D03*
X101400Y378500D02*
D03*
X95600Y198600D02*
D03*
X133600Y194567D02*
D03*
D86*
X121600Y40100D02*
D03*
X198800Y258600D02*
D03*
X250500Y322600D02*
D03*
D87*
X26400Y353300D02*
D03*
D88*
Y373300D02*
D03*
X306200Y364500D02*
D03*
D89*
X64800Y373200D02*
D03*
D90*
Y359420D02*
D03*
D91*
X46216Y41000D02*
D03*
Y48874D02*
D03*
Y56748D02*
D03*
Y33126D02*
D03*
Y25252D02*
D03*
X38342Y41000D02*
D03*
Y48874D02*
D03*
Y56748D02*
D03*
Y33126D02*
D03*
Y25252D02*
D03*
X30468D02*
D03*
Y33126D02*
D03*
Y41000D02*
D03*
Y48874D02*
D03*
Y56748D02*
D03*
X22594Y41000D02*
D03*
Y33126D02*
D03*
Y25252D02*
D03*
Y48874D02*
D03*
Y56748D02*
D03*
X90875Y22400D02*
D03*
D92*
X98749D02*
D03*
D93*
X326200Y364500D02*
D03*
M02*
