M48
;Layer_Color=9474304
;FILE_FORMAT=2:5
INCH,LZ
;TYPE=PLATED
T1F00S00C0.00800
T2F00S00C0.01000
T3F00S00C0.01600
T4F00S00C0.03150
T5F00S00C0.03543
T6F00S00C0.03937
T7F00S00C0.04016
T8F00S00C0.06299
;TYPE=NON_PLATED
%
T01
X01432Y01153
X01529
T02
X00789Y00598
X00806Y00622
X00824Y00644
X0122Y00739
X01404Y0108412
X01658Y01166
X02413Y00973
X02811Y0094801
Y0105199
Y0115596
Y0125994
X0277201Y0046301
X02575Y00549
X02463Y00501
X02289Y00453
X0358501Y0289601
X02425Y02763
X0240266Y02157
X02431Y02126
X02416Y02095
X02165Y02165
X02077
X0177166Y0216535
X01773Y02074
Y01862
Y01773
X0183071Y0173
X0191Y01771
Y01863
X02086
X0217204
X02173Y01772
X0214Y01592
X02106Y01608
X02414Y01626
X01446Y01661
X01488Y01995
X0141Y026
X01134Y0176
X00835Y01786
X01294Y03382
X02276
X0371599Y0355801
T03
X00668Y00276
X00671Y00345
X00765Y00346
X00766Y00276
X0084186Y0054386
X009985Y004935
X01425Y00883
X01519
X01529Y01365
X01435
X0178599Y0120901
X0196999
X02102Y01256
X02179Y01242
X02238Y01301
X0219401Y0105501
X02445Y00943
X0280999Y0084501
X02693Y00657
X02646Y01337
X02113Y00373
X03058Y00726
X03201Y00936
X03644Y01905
X0357967Y0238833
X03548Y02691
X03504Y02656
X03774Y02689
X02908Y02583
Y02385
X02715Y02676
X02583Y02859
X02448Y0156
X02824Y01524
X0107Y01985
X00679Y01986
X0107923Y02522
X01127Y02584
X00813Y03751
X00752Y03693
Y03811
X01614Y03729
X02076Y03628
X02126Y03552
X02217Y03424
X02374Y03542
X02422
Y03609
X02374Y0361
Y03684
X02422
X028295Y03636
X0352601Y0355801
X03806Y03642
T04
X0022594Y0025252
Y0033126
X0030468
X0038342
Y0025252
X0030468
X0046216
Y0033126
Y0041
Y0048874
Y0056748
X0038342
Y0048874
X0030468
Y0056748
X0022594
Y0048874
Y0041
X0030468
X0038342
X0090875Y00224
X0098749
X02505Y03226
X0260343
T05
X00407Y0108412
Y012416
X00899Y00976
X00999
X01099
X01216Y00501
X01316
Y00401
X01216
X01416
X01516
X01616
X01716
X01816
Y00501
X01716
X01616
X01516
X01416
X01916
X02016
Y00401
X01916
X01919Y00819
X01819
X02019
X02119
X02219
X02319
X02419
X02519
X02498Y00718
X02398
X02298
X02198
X03525Y00697
Y00797
X03625
Y00697
Y00597
X03525
X03409Y01009
Y01109
Y01209
X03709
Y01109
Y01009
X02715Y01727
Y01827
Y01927
Y02027
Y02127
Y02227
Y02327
X02388Y02586
X02288
X02188
X02088
X01988
Y02686
X02088
X02188
X02288
X02388
X01336Y0214567
Y0204567
Y0194567
X01236
Y0204567
Y0214567
X00407Y0218711
Y0234459
Y02029
Y0187152
Y0171404
Y0155656
Y0139908
X00866Y03253
Y03353
X01014Y03585
X01114
Y03685
X01014
Y03785
X01114
X00648Y03732
Y035942
X01316Y03038
X01416
X01516
X01616
X01716
X01816
T06
X0270746Y0057942
Y0075658
X0297518
Y0057942
X0298572Y0280557
X0325343
X0345028Y02806
X03718
Y0298317
Y0318002
Y0335718
X0345028
Y0318002
Y0298317
X0325343Y0298273
Y0318102
Y0335818
X0298572
Y0318102
Y0298273
T07
X00856Y01986
X00956
Y02086
X00856
Y02186
X00956
Y02286
Y02386
Y02486
Y02586
Y02686
Y02786
Y02886
X00856
Y02786
Y02686
Y02586
Y02486
Y02386
Y02286
T08
X00264Y03533
Y03733
X03062Y03645
X03262
M30
